<mxfile host="app.diagrams.net" agent="Mozilla/5.0 (X11; Linux x86_64) AppleWebKit/537.36 (KHTML, like Gecko) Chrome/124.0.0.0 Safari/537.36" version="26.2.5">
  <diagram name="Page-1" id="gDBw3nVNED-Q9i6vqiHG">
    <mxGraphModel dx="2206" dy="798" grid="1" gridSize="10" guides="1" tooltips="1" connect="1" arrows="1" fold="1" page="1" pageScale="1" pageWidth="850" pageHeight="1100" math="0" shadow="0">
      <root>
        <mxCell id="0" />
        <mxCell id="1" parent="0" />
        <mxCell id="dvEIaOIoxglr-e-UjKsE-2" value="" style="shape=image;verticalLabelPosition=bottom;labelBackgroundColor=default;verticalAlign=top;aspect=fixed;imageAspect=0;image=data:image/png,iVBORw0KGgoAAAANSUhEUgAABLcAAAFVCAYAAAAdTA0gAAAABHNCSVQICAgIfAhkiAAAIABJREFUeF7s3QlYVFX/B/DvDAyb7LsKyuKCioiK5J5baim4YG5klpqZGbmkaYlWbln/3PLNN5fstdQ019w1TdwoccM1cENwQxAVlG2A+d877DAzDMjO9z7PPMm9557lc6Y5M7977rmS0//8rWju0QLcKEABClCAAhSgAAUoQAEKUIACFKAABShQVQSSkpJwJfQsdKPu3kMb71eqSr1ZTwpQgAIUKCeBtLQ06OrqllNpLKYoAfZHUUI8Xl0E+F6vXD3J/mB/VC6BylUb/v/B/qhcAjWvNomJiXj69Kmy4dKa13y2mAIUoAAFtBEQv7BxqzwC7I/K0xesSdkK8L1etr7FzZ39UVyxsk3P/ihb3+Lmzv4orljZpmd/lK1vZc+dwa3K3kOsHwUoQAEKUIACFKAABShAAQpQgAIUoIBagXz3m9x4moLG/7uGDIXa9CoP6OlIED6yCeqb6qk8zp0UoAAFKEABClCAAhSgAAUoQAEKUIACFCgLgXwzt0oS2BIrlZqugNNPV8uifsyTAhSgAAUoQAEKUIACFKAABaqKQMouvG1hBCtHV/T87grSi6p3ehiWvdEAjlaGMB62DSlFpedxClCAAioE8gW3Cs7YcjSRYUU3B6ztWQ/uVgY5pyd86IFn45sj5n13PBJe/wxtlD9r+d+Y1qQpPj2tar0WOYKnuqHZjBCoOqqijtxFAQpQgAIUoEBZCHC8LgtV5kkBClCAAjIvBB67joNTmkGnKA2dxgjYG47js9pAVlTamnCcY3NN6GW2sQwE1D4GSyoBDvs1QENzfWWx/VzN4CrMznqSkg6T/1zUXBUdZ/QPnAmJE5f00gzFoxSgAAUoUHMFUnB66TuY8XMwzl65C6PR+xGxogfK9QZ/jtc19+3HllOAAhSgQOUUqEljs/wkJjd7D7JfL2Kht9rQROXsJ9aq0gmojT65munnBLbEWlvo68Db3kjZAGOZFGbC3+JLDIIV2qR2aD98ONrZqs2+0CncQQEKUIACFKhZAhIYOnTA21+txbdv2lfM44s5XtestxxbSwEKUKBCBNIRtrAtbN/chCc5azun4PjEhnANCOJtiAX7pDqNzenpRd+WWrD9/JsCJRRQG326k5CKe8/lOdm+kGfgQkyS8u+LI9zw9IPmylfihBaFi843lVKBhLPLMczTHmYWdeDuOx/HHxdzxfrCJXAPBShAAQpQoIoL6KG53wSM9OmIhpZF3rShuq0p2zHcsiuWR2VkHZfjxKSGaBF4LvPW/6KOc7xW7cq9FKAABShQigI6aDhoMBoFbcLeuKzfgcmnsOkPKfoPbYfM+4RKsbhKkFXFj80KxIcsw9AW9jC3rAv3fl/im1GN8y0NJI/cg8B+HqhjbgxTew/4LQhCjNg98iAEuDbH6HnTMKCTN1o0cEFL/5W4nJwLW/S5U+Hb1hNurT/B0ZRYHJztg9bONjAzNoWde18E7r+PDCGsuSfAH2sibuDH/g3g5NQIw9Y9hLIK6uqmsm+LXNVN5VncWf0E1Aa3xEXie2+/ia03nmJfRDze2HEL0YmZq2S5CLcnSpZcUL4Mvg/VrJJ0HIHD5iJu5H5EPY7EkYmJ2LolUngzc6MABShAAQpQoNIIcLyuNF3BilCAAhSobgJS54EY3PQ4Nu2OUQYvko79hl0GAzCkTbnejF/1WEs6NiceQ+Dwr/H8vUOIio3E0anp2LU9z29weSgW+o3GEffFOBMdj+jgObDbOAIf/Z7ZP0gLw6GrrbD0yGmEXt2Ht6JmYvqGaGXfQYtz951risVBF/DvhUXorqeAUbPRWB18B3Hx9xE01RTr352Gnc/00WfZeox2aoD3d9xAREQ4Nr5tD0lR+RfqxRJeICyUD3dUdQG1wS2xYZcfJ2PQ7ghlYOvYveclaqv89BbsTPXD9PGeMJXqwrbbDHzcI3dx+hJlypMoQAEKUIACFChVAY7XpcrJzChAAQpQIK+AtB4GDGmB4M27EZ3xAn9t2gszvyFoxRXkNb5PSjo2y0O24o+MNzFtbHOYSHVg3fETBPTMXGJILFB+5hese+CLWYHdUUdfCkNnXwR+6IbD244hUUwgdcTAcX6oJ/aPnit6dK2Lf0PDlLPCiz7XHv0/9IerckqesIaRxAYdB/dHS2GJIx2pMdz8J2GIVQhOXMm9S0xMmb0VmX/exPw3BfIIqF21rYmlAXxcTNFU+K+usLBW2JMUzPnnYc6piomeyn+Ls7c0bemxj/Ckdms45JRUC/XqW1fM2iKaKspjFKAABShAgRoswPG6Bnc+m04BClCgzAWkcOg3BK1nbcYf4ZY4sc8Ggw54QO2P0TKvT9UooKRjc3psNJ7YeqF2zqQmQ9SuY5nzGzz9wV3cjzuCDzyP5T7IJjUBep4JeK6wFoJbpjAzzV5cWwKZni5SU1OVM7cyijzXEjZWeebQKOJxdvV0fL7iIK7GyCHVSUN8tAKDX6heqkhz3YBaqtb8rhrdyVqWsUChzxMDXSl+7V0Pfg3MCxWdHdwSA1vZQa28/y50grBDx9oWlk9i8Fi4D7Gh8n8uOWJjniLDUVVq7qMABShAAQpQQHsBPejppUGec/EzAwnPniPDODuHoo7nlsTxWnt1pqQABShAgeILSGr7Ysgrn2HFR4twx+FNzGhafW8nq+ixWcfaDhaP7uKBsBxV5m/wJDy4H4cMl8x+07GtDfu6/lh7cTE6FbwzVFhzS9NW9Ln5o09plxZjzBf3MPbAGex2N4du2jnMbOmLmKxCJGLILE+cS2P+mirGYzVeoNBtiW+5WagMbJVUStbGDz4Z27H6QIxynS35zV+xav+zvO/fkmbN8yhAAQpQgAJVWkCRloqU5GSkpimgSJcjOTlF+W+tN1kTtGh0HUeO3lc+jSj19kas2heXO8YWdTxPQRyvtVZnQgpQgAIUKImAxBZ9h3RA2OF/4DJ4EBpV39hWhY/NsjYD0FfyO75ddVmYiZWO2BP/h2UHlTccKjeZ9wiMMNuEmXMPITJR+N6RnoRHVw9jb0jWmlsa+re45yqeJyDRyAGNnITAlhARiDm8GlvCsxaBl1rAyiwOt4U1vrO//RQ3fw1V5aEaJlAouHUkKkG5cPz9F3Llf58LT0l8lpKOmKTMxeRFH3HWljhjq6hZW0pLo86Y8+sEJMzuhJbtu6DnlGvw6FEf1fizrIa9hdhcClCAAhQomUAazn/ZCsaGpuj13yjcX/UGzAyN4RF4JvNJh9pkKnXG6G+mQLqoM9y92uO1T8Lh3sUh99b/oo7nLYPjtTbiTEMBClCAAkUJSPRgYnIDS3o1h8/Sq8qLL5mbBDYjduBZRgqCP2mY+3swPRw/DPBAz8U3YGpSPZ6dWOFjs1EXzF0/FYb/7Ya6VvXQ5Rsd9OnnAJlO1q9wvVb4fPsadLs6Ax0cTGFq7YwOo35ASJwWj30r5rmyVwKw4PVLGN+qJTp264n3dtugnVvWDWQ6jTF0Uh/cnOwKc3Nb+Ky+D0Ux8y/q7cjjNUdAsnXrVsXAgQOVLS5q/ayCLAWDW9nrcBVMx78pQAEKUKDqCSQLM4oMDPgAkMrSc+yPytITrEdZC/C9XtbCxcuf/VE8r7JOzf4oa+Hi5V91+uMZfhvkih9fPY/DHzlW2/Wvq05/FO99xtTqBRITExEdHY17d27mf18/+aC5+rMKHGEgS2sqJqQABShAAQpQgAIUoAAFKEABCpSTQAbuntqPM9HiIvCpePDnPCw62givv1an2ga2ygmWxVRigXwLypvr6yhvNVS3Of90FRHxqcrDBWd5OZkWXIlOXS7cTwEKUIACFKAABShAAQpQgAIUoEBJBTIiVmLQa/NxLuehMlk5yVrhs0Ob8OqVn/DOIH/cT86ArlVLDFm2FgFuVXdxIE3tjbi+raSMPK8aCeS7LbEatYtNoQAFKECBlxTg1O6XBCzl09kfpQzK7CqtAN/rlatr2B/sj8olULlqw/8/2B+VS6Dm1SbfbYn2drY1T4AtpgAFKEABClCAAhSgAAUoQAEKUIACFKgWAlKZTFYtGsJGUIACFKAABShAAQpQgAIUoAAFKEABCtQ8AWnU3Xs1r9VsMQUoQAEKUIACFKAABShAAQpQgAIUoEC1EJBWi1awERSgAAUoQAEKUIACFKAABShAAQpQgAI1UoDBrRrZ7Ww0BShAAQpQgAIUoAAFKEABClCAAhSoHgIMblWPfmQrKEABClCAAhSgAAUoQAEKUIACFKBAjRRgcKtGdjsbTQEKUIACFKAABShAAQpQoAwEUnbhbQsjWDm6oud3V5CuqYj0MCx7owEcrQxhPGwbUjSl5TEKUIACGgR0Cx6TLLmg3KWY6Kn874WYJLRcH5aT7Lx/Y3jaGCI7nY5EAkNdCZ7LM3LOKZhn5f1bjuCpzTFG9xeELmiDQhiVt+KsGQUoQAEKUACQ/41pHqMg+d9FLPTmKMa3BAUoQAEKVBIBmRcCjx3FROci5lLoNEbA3nD4Lu2Cln9XkrqzGhSgQJUUyPdpIwasRja1zNcQMbD15IPmysCVGNjKDnSJf4uv5I88cHdMs4ppvPwkJjdqik9Pp1VM+WKplaEOFdd6lkwBClCAAiUVSArFT+P7wqu+BQz0asGuWW9M2RxevKvWOs7oHzgT/Z2K+PEg1lHNePX8wiqM6eQCS0N9GFk3Ro+Pf0M4L52XtFd5HgUoQAEKUIACFKBABQjk+zZ8e1RT/NyzXr5qiAEsc30d5T4nU71CVVQIe8xXXCr5rK30dM1TVQuVyB0UoAAFKECBqi+gSH6Ax+Y++GrradyKuoodH1ti56ih+OaSxhs48jdcaof2w4ejna0WwS1VZGmh+O6diQj2WIoLcYmIOT0P9fePxdgfbyNDVXruowAFKEABClCAAhSgQCUUyPdtWFXwKm+dLYQg1uy29jm7xJletVdeweJX6xZqWmrEH/i8nyfqmpvA1NoJ3mM2IEL8piwPQoBrc4yeNxW+bT3h1voTHE0VdkfuQWA/D9QxN4apvQf8FgQhRoycKWJxcLYPWjvbwMzYFHbufRG4/77wpTsFewL8sSbiBn7s3wBOTo0wbN1DiKeozUs4mnB2OYZ52sPMog7cfefj+GPxjCK2EtShiBx5mAIUoAAFariAxKI3ps5/H294NUQdu/poN2o6RjS4jjMXnmsvI96W2CRrBnPO+DoNAzp5o0UDF7T0X4nLyWJ2asbMjAeIemiPnsN6o56hDmq5+MK/uxluhUWgAudEa99+pqQABShAAQpQgAIUoIAgoNWl3qcp6co1tj5uaYMv8gS3xFldsePcMSnoHiYKr5wt9SzmDRiFQw3m4uT9eDy9exprRjWHsSQrRVoY9p1risVBF/DvhUXoLgnFQr/ROOK+GGei4xEdPAd2G0fgo99jhHCUAkbNRmN18B3Exd9H0FRTrH93GnY+00efZesx2qkB3t9xAxER4dj4tj0kcg15JR1H4LC5iBu5H1GPI3FkYiK2bonU4up0MevAtxYFKEABClCgmAIZ0SE4fdcZLdxrFfPMPMmF8fXQ1VZYeuQ0Qq/uw1tRMzF9Q7QwkqoZM/U6YtS4Ojj92wFEJmcg8fYubPhLFz16t4Cs5LXgmRSgAAUoQAEKUIACFChXgSKDW+KC8uKMre0+zliiYoaWWFsxyLX0fExOxeWnf8X6mAH4ak5fOBlJIDWwRfP2zWGdHdyS2qP/h/5w1RdPkUB+5hese+CLWYHdUUdfCkNnXwR+6IbD244hUWKDjoP7o6W9EXSkxnDzn4QhViE4cUWuEkpTXs9Ob8HOVD9MH+8JU6kubLvNwMc9DFTmk29nMetQdIZMQQEKUIACFMgjkHQJ3787GxHDvsMkz5dYGF7qiIHj/FBPjEzpuaJH17r4NzRMwyysWnDr5Yc6h4bAqZYMJq4jEdx5Eea8YSmMztwoQAEKUIACFKAABShQNQSK/AYtLiCf/YTE7CaJM7nEgFfeJyrmbW569APE1m6B+srglYpNagkbq9y4WvqDu7gfdwQfeB5DzqpeqQnQ80zA84x4/LtmOj5fcRBXY+SQ6qQhPlqBwS9U306oKa/4mEd4Urs1HHJaXQv16lsXPX1NEY+zq7Wvg4oWcxcFKEABClBAtUBKGNa81Q/fWy7AgUWvweJlokpSU5iZZmcggUxPF6mpqcpb9lVtiqc7EDBwARImH8bDAG+Yxp3Et8OHwOcrR/z9pVfumKzqZO6jAAUoQAEKUIACFKBAJRHIF9wSby3MnoEl3oYoBrXELfsJidl1FoNa4lMVxTTZW3Za8W8duzqwfngbkcJaWk0Mc5Lk+Uf+b+46trVhX9cfay8uRqcCa9anXfwSvb+4h7EHzmC3uzl0085hZktfZM8Tk4hf2fN8a9eUlzzoHCyfxOCxsPZXQ+Ua+XLExjxFhqOqOubuS7u0GGOKUQfNufEoBShAAQpQIEsg9Tr+N+INzM2YgX3/GwHXMr4XsOCYmR55EZeft8PU99vCVrwgVbsj3hvmjm9+PorI2V5oUOT8bvYkBShAAQpQgAIUoAAFKl4g39dW8bZDMXCV/fK0Mcz3d/Z+sdriUxXFpyv+0M1BmUZMm73JvIdjuPV2zP5iHyKThFWzUmJwOfgyYtVcOpZ5j8AIs02YOfcQIhOFROlJeHT1MPaGxCDjeQISjRzQyEkIbAmrY8UcXo0t4VlPkpJawMosDrcj4nPiW5ry0m3jB5+M7Vh9QMhXqKz85q9Ytf+Z2iva2e1RFLMOFd+trAEFKEABClR6AfltrH/ndXz25ANs/mkEnBTJSE5OgbwYD0ssVhtVjJm6zq3gafI31q85g8fCCvLyR8FY89tZmAiL1NdmYKtYvExMAQpQgAIUoAAFKFBxAi/11VV8uuIHHtaFa6/nhZnbVqHLlanwtjOFed02GP3TJTxXE9yCXit8vn0Nul2dgQ4OpsLTFZ3RYdQPCInLgOyVACx4/RLGt2qJjt164r3dNmjnljXhTKcxhk7qg5uTXWFubguf1feh0JAXjDpjzq8TkDC7E1q274KeU67Bo0d9KCdxadiKXQcNefEQBShAAQpQQBRIv7MVy7fcxP0/hbHS0hCGhuLLFN2XR2jxoJMSGKoaM0364tvfJsNs40C4mhrCrPFQ7LD5BOsX9MZLLGtfgsrxFApQgAIUqDYCEj2YmNzAkl7N4bP0KjRes0kPxw8DPNBz8Q2Ymqhb06bayLAhFKBAGQpItm7dqhg4cGAZFsGsKUABClCgKgokJyfDwECLh25UxcZVwTqzP6pgp7HKJRLge71EbGV2EvujzGhLlDH7o0RsZXYS+6PMaEuUMfujRGxV+qTExERER0fj3p2bRa+lXqVbyspTgAIUoAAFKEABClCAAhSgAAUoQAEKVGuBIp+WWK1bn6dxGRErMei1+TgnL9BiWSt8dmgLxjq91B2cNYWR7aQABShAAQpQgAIUoAAFKEABClCAAuUqwOBWFrfUaSy2XR9brvgsjAIUoAAFKEABClCAAhSgAAUoQAEKUODlBKT2drYvlwPPpgAFKEABClCAAhSgAAUoQAEKUIACFKBABQlIZTJZBRXNYilAAQpQgAIUoAAFKEABClCAAhSgAAUo8HIC0qi7914uB55NAQpQgAIUoAAFKEABClCAAhSgAAUoQIEKEuAq6RUEz2IpQAEKUIACFKAABShAAQpQgAIUoAAFXl6Awa2XN2QOFKAABShAAQpQgAIUoAAFKEABClCAAhUkwOBWBcGzWApQgAIUoAAFKEABClCAAhSgAAUoQIGXF2Bw6+UNmQMFKEABClCAAhSgAAUoQAEKiAIpu/C2hRGsHF3R87srSNekkh6GZW80gKOVIYyHbUOKprQ8RgEKUECDQKHglmTJBYiv7O1CTJLy7+yX+Le4Zf+tuzQUJv+5mO8cDeWV8JAcwVPd0GxGCNJKmIP2p5VnWdrXiikpQAEKUIAChQTkf2Nak6b49HTZj46FyuYOClCAAhSggDoBmRcCj13HwSnNoKMujbhfpzEC9obj+Kw2kGlKx2MUoAAFihDIF9wSA1Yjm1rmO6Xl+jA8+aA5FBM9cd6/McS/xU38W3wlf+SBu2OaFVFMOR6Wn8TkRhX8Rb8y1KEcyVkUBShAAQqUQCDjLrZMeBXu9axhrG8A83ptMGTBEURnFCMvHWf0D5yJ/k6FrlUVzkTN2PT8wiqM6eQCS0N9GFk3Ro+Pf0M4L50X9uMeClCAAhSgAAUoQIFKK5Dv2/DtUU3xc896+SorBrDM9TPj7U6meoUaohD2mK+4pAx0caMABShAAQpQQEsBiQma+3+NTccuIzL6HkJ/Hw3FSn98siteywyEZFI7tB8+HO1stQhuqco1LRTfvTMRwR5LcSEuETGn56H+/rEY++NtFCfGpipr7qMABShAAQpQgAIUoEB5CeT7NqwqeJW3IhZCEGt2W/ucXeJMr9orr2Dxq3Xz1zdlO4ZbdsXyqOyvxnKcmNQQLQLPZd5WKA9CgIs7Rs4KgM+rHdCmqRvavrMalxKzs1Eg4exyDPO0h5lFHbj7zsfxx2IYLWtTxOLgbB+0draBmbEp7Nz7InD/feGLeAr2BPhjTcQN/Ni/AZycGmHYuocQz5RH7kFgPw/UMTeGqb0H/BYEIUaZZRFl5Zaa/18lqIO6rLifAhSgAAVqoIDEDI3btUMzJ3tYmluhrksD1DaKR1TkU+0DS3lvSxTHVtfmGD1vGgZ08kaLBi5o6b8Sl5NFWzXjY8YDRD20R89hvVHPUAe1XHzh390Mt8IiymEZgBrY52wyBShAAQpQgAIUoECZCGh1qfdpSrpyTa2PW9rgizzBLXG2Vuw4d0wKuoeJwqtYm7B44IHLrbH8z5MIuXgQE17Mgf+8EKSKmSQdR+CwuYgbuR9RjyNxZGIitm6JzPNlXwGjZqOxOvgO4uLvI2iqKda/Ow07n+mjz7L1GO3UAO/vuIGIiHBsfNseEnkoFvqNxhH3xTgTHY/o4Dmw2zgCH/0eA0WRZalrVTHroC4b7qcABShAgRosIMepz1qhjp0VzOv0xOq0IZgw0AFaDc6q1NLCcOhqKyw9chqhV/fhraiZmL4hWriMo2Z81OuIUePq4PRvBxCZnIHE27uw4S9d9OjdgmufqPLlPgpQgAIUoAAFKECBSilQ5PdncQF5ccbWdh9nLCk4QyurSWKQa+n5mOI1UGIL33FDUV9cOVC3HgaP64NnO7YhVFgTV356C3am+mH6eE+YSnVh220GPu5hkJu/xAYdB/dHS3sj6EiN4eY/CUOsQnDiilxlHeRnfsG6B76YFdgddfSlMHT2ReCHbji87RieFVWWyhyFncWsg7psuJ8CFKAABWqygAxtZhzAuXOn8dfGOXjXpxMamRU5NKsHkzpi4Dg/1BPHVj1X9OhaF/+GhmmYhVULbr38UOfQEDjVksHEdSSCOy/CnDcsIVFfCo9QgAIUoAAFKEABClCgUgkU+Q1aXEBeXEi+v6tZTsWzZ3Jl78h+gmKxWia1gq117rMzpNa2sHgcjVjhTsb02Ed4UtsJDrrZOdZCvfrWuVeyFfE4u2o8erdqgHqO9eHUoD9+vJmAFy/y3LqYpzLpD+7iftwOfODpBjc38dUEXRdegV5qAuJjiihLXaOKWQd12XA/BShAAQrUbAGZiQ3s67qizaCpeDN1HkZ+e0FDMKoIK6kpzEyzw1ISyPR0kZqaqrw9X9WmeLoDAQMXIGHMYTxMlOPFvX0YGv4hfL46kzmTWtVJ3EcBClCAAhSgAAUoQIFKJpATPhLrJd5amD0DS7wNUQxqiVv2ExKz6y7O1BKfqiimyd6y02b+rQc9vTTIcyZSZSDh2XNkGOckBzIe4k6U8DimVplVSI26g2hLe1gL4TYdIdBl+SQGj4VAV0Nl/EuO2BhhDRLHzPPTLi3GmC/uYeyBM9jtbg7dtHOY2dIX2XPHJOLX+Dzf5HVsaws/HPyx9uJidCqwJr486JzGsvLUON8/i1sHdflwPwUoQAEKUCBbQKFIQ8TNO0iHJ/IN0KVEVHB8TI+8iMvP22Hq+21hqy8UUrsj3hvmjm9+PorI2V5oUOQlsFKqGLOhAAUoQAEKUIACFKDASwjk+9oq3nYoBq6yX542hvn+zt4vlic+VVF8uuIP3RyUacS0OZusCVo0uo4jR+8LX9CB1NsbsWpfXP4rx8LMpz2L/w/BcenIePIPFn2zC1b9BqCF8G1e1sYPPhnbsfpAjHKdLfnNX7Fq/7Oc8xXPE5Bo5IBGTkJgS0gRc3g1toSLJQmb1AJWZnG4HRGfk17mPQIjzDZh5txDiEwUol7pSXh09TD2hsRAt4iychuV/1/FrYO6fLifAhSgAAVqpoDi6Un8uuYALtyOQXz8Q1zeORuBG56h7autyma9KxXjo65zK3ia/I31a87gsbgswKNgrPntLEyaNEVtBrZq5huTraYABShAAQpQgAJVUOClvrqKT1f8wMO6cLOlzhj9zRRIF3WGu1d7vPZJONy7FFggV7cxhvik4KsODrBy7o/tTvOwfqY3lBOrjDpjzq8TkDC7E1q274KeU67Bo0d9ZN/EKHslAAtev4TxrVqiY7eeeG+3Ddq5ZV3j1mmMoZP64OZkV5ib28Jn9X0o9Frh8+1r0O3qDHRwMIWptTM6jPoBIXFC6KyIsgo3LnNPseugLiPupwAFKECBmikglSNix2cY0MYJ1tau6PrJCTh/ug1rRzuWfEF5TZKqxkeTvvj2t8kw2zgQrqaGMGs8FDtsPsH6Bb1RS1NePEYBClCAAhRQJyDRg4nJDSzp1Rw+S68qJzuo3dLD8cMAD/RcfAOmJuIUYm4UoAAFSiYg2bp1q2LgwIElO7ukZ4mPK3ebCIttIfhSnKrFjQIUoAAFKp1AcnIyDAzyPMyj0tWwZlWI/VGz+rsmt5bv9crV++wP9kflEqhcteH/H+yPyiVQ82qTmJiI6Oho3Ltzs2x/qb89AAAgAElEQVQuDtc8UraYAhSgAAUoQAEKUIACFKAABShAAQpQoCIEOG1Kg3pGxEoMem0+zuUsjJ+VWNYKnx3agrFOL3VXp4aSeYgCFKAABShAAQpQgAIUoAAFKEABClBAG4GKCW7JXsWym+e1qV+FppE6jcW262MrtA4snAIUoAAFKEABClCAAhSgAAUoQAEKUEC9gNTezlb9UR6hAAUoQAEKUIACFKAABShAAQpQgAIUoEAlFpDKZLJKXD1WjQIUoAAFKEABClCAAhSgAAUoQAEKUIAC6gWkUXfvqT/KIxSgAAUoQAEKUIACFKAABShAAQpQgAIUqMQCXBG9EncOq0YBClCAAhSgAAUoQAEKUIACFKAABSigWYDBLc0+PEoBClCAAhSgAAUoQAEKUIACFKAABShQiQU0Pi0xUZ6BX85E49itp4h6mqJshqO5Pjq7mGOElx2MZIyNVeK+ZdUoQAEKUIACFKAABShAAQpQgAIUoEC1F1AbnToTlYAh665i1d/3EfYoEYmp6cqX+G9xn3hMTMONAhSgAAUoQAEKUIACFKAABSigFEjZhbctjGDl6Iqe311BuiaW9DAse6MBHK0MYTxsGzKnU2g6gccoQAEKqBZQGdwSg1YfbL2OB/G5Hy+2tWSoY5L7ZEXxmJhGuwCXHMFT3dBsRgjSVNcjd6/8b0xr0hSfni4yZVE5FXG8GHUqIicepgAFKEABClQagXIbRytNi1kRClCAAhSobAIyLwQeu46DU5pBR1PddBojYG84js9qg9xfmppO4DEKUIACqgUKBbfEWxG/PHgHCoUi3xk34oE/xnjk2yemEdOK55T7Jj+JyY3KIwimoWWVoQ4aqsdDFKAABShQNQTSb/4HPcylMHjjJ8TmH341N0DVOKTjjP6BM9HfqdAQrzmvkh5VVYeS5lWS8yq6/JLUmedQgAIUoAAFKEABCpSqQKFvvuIaW3lnbBVVmphWPIcbBShAAQpQgAIlEMi4h/VTf0Syuys0LoSpbdZSO7QfPhztbAsN8drmwHQUoAAFKEABClCAAhSoUgKFvvkG3Xxa7AaIC87n3xRIOLscwzztYWZRB+6+83H8cf5L0fLIPQjs54E65sYwtfeA34IgxKi4Wq06XQr2BPhjTcQN/Ni/AZycGmHYuocQT1edXqxd0XVS2XBFLA7O9kFrZxuYGZvCzr0vAvffR4ZwR7i6OqjMhzspQAEKUIAChQQUiN35Gb7DJHzVxxKSQsc17VAzDuW9LVEehADXFvhw6RfwaWIDE9N66Dx1D6Jub8fkrg1gaWwG515zcfxp7gCsdhwVgnB7Z/RGEzsLmFtYoXajrpj3z3PVY6HasVNoT3HrJKZ3ccfIWQHwebUD2jR1Q9t3VuNSomij2iBx52g42dvDPutlY6oH/Y6LcKsCJppr6kEeowAFKEABClCAAhQoHYFCwa27z4q/jF/2kxRzqpR0HIHD5iJu5H5EPY7EkYmJ2LolUggIZW3yUCz0G40j7otxJjoe0cFzYLdxBD76PUYZoMrZ1KaLxxvL1mO0UwO8v+MGIiLCsfFte0jUphfyLapOaj0VMGo2GquD7yAu/j6Cpppi/bvTsPOZPvqoqoPafHiAAhSgAAUokF9A8ewwvvjyHkYt9EfdQiNyUVpajkNp17H9kClmn3qA2NCvYLthDLqO3AWPH84jJvokJqQtwbSV1zMX/NUwjqYGf4eJO12w+FIMnj6JRtiBhfBxNFIzFqobO7PaVJw6iacICw4fuNway/88iZCLBzHhxRz4zwtBKlQbGPVbg4iHD/FQeD24thEjnO3Q3b8vHIttXFQf8DgFKEABClCAAhSgQGUQKPJrnoGuFPHpMoR+3Ezr+spPb8HOVD9MH+8JU6kubLvNwMc9DHLOl5/5Bese+GJWYHfU0ZfC0NkXgR+64fC2Y1BeiM3atE2nTfpnRdRJbeMkNug4uD9a2htBR2oMN/9JGGIVghNX5GpP4QEKUIACFKBA0QKJ+Ofr6Tgz4BuMa6hxud2is9KUQmqDAZMnwMtCF/rOfhjo/Ry1uk3EW01MoFOrKQb5NkN46FXlA180jbtJenrQTYjExUu3ECfXhamzNzzqqPkaUdTYWYw6KZsmsYXvuKGoL642rFsPg8f1wbMd2xBa1LNn0iPwy5h3sMd7BX4e14iLFWt6n/AYBShAAQpQgAIUqMIChZb3cDTXR9ijROjrSBCTqoszkzIXkW/0fxfRwFR1S8Vz8m7psY/wpHZrOOTkXgv16lsj+ytw+oO7uB93BB94HoNe9ompCdDzTMDzPFO3NKezL1QZTenjYzTXqVBm2TsU8Ti7ejo+X3EQV2PkkOqkIT5agcEvVNxDqTYTHqAABShAAQrkF5BfWoIpezvi65OthPlHGh+U/nJ0UktYW2WPwHowMNCFlY1l1pgsgb6BHtJTU5WzqxUaxufk1tOxblYgvvy0B+bfkMDt9fcxb9F0dLdWUb2ixs5i1EmZu9QKtta5AUCptS0shJnhsWKl1d7L+QIh84ZhRvT72PVLX9iqTaei/txFAQpQgAIUoAAFKFClBAoFtzq7mMPcQAdf9nKGtbEMb/7vCm7HJcNU+E756IXqtonn5N10hC+dlk9i8Fj40pl5MVqO2JinyHDMTKVjWxv2df2x9uJidMqJbmXlIKwVkr1pTndS+D4rBJjyxJg0pZcHndNYJ9UtA9IuLcaYL+5h7IEz2O1uDt20c5jZ0hcxWScUrIO6fLifAhSgAAUokCugwONTR3H+xlkMbfCbcnd6YhwSUyfDvfF5rLv8PXoWHB/V8JXmOKRpHBWLt3vve+wSXvLY81g5pi/endsWN5boFxqPixo71TRF/e6Mh7gTJSyb0Crza0tq1B1EW9rDWozZCd8DChsoEL3zI/j/5IBvjn2KVkbqs+YRClCAAhSgAAUoQIGqL1DofoIRXnZIlCswYft1eC0+qwxsadpqm+pDPCfvJmvjB5+M7Vh9IEZ5JVh+81es2v8sJw4l8x6BEWabMHPuIUQmCt9K05Pw6Oph7A3Jv+aWxnRSC1iZxeF2RLxW+eoWUSd1bVQ8T0CikQMaOQmBLaE1MYdXY0t41hV2FXVQlw/3U4ACFKAABXIFJLB9exNu37yCCxcuCK9z2BHgDsMOX+Cv43PxqpaBLZTyOKRp3E29th+bT0UgQbgVUGZqCzszfeF2fR1IVNRB49hZkreBMBNsz+L/Q3BcOjKe/INF3+yCVb8BaCHGulSUn3r1e7w1/hx8f16F4fXK8JbPkrSF51CAAhSgAAUoQAEKlLpAoeCWkUyKDzvUwc3HmoNaYk0kEglm96wP8Zx8m1FnzPl1AhJmd0LL9l3Qc8o1ePSoj5yvl3qt8Pn2Neh2dQY6OJjC1NoZHUb9gJC4Ao8x0pROpzGGTuqDm5NdYW5uC5/V96HQlL6oOqmhlb0SgAWvX8L4Vi3RsVtPvLfbBu3csia8qaqDmny4mwIUoAAFKJBXQGpoAbucJ/rZwdpEBom+KWxszYTbFLXcSnsc0jCOKuIvYd2ELnC2MoO5vTfmPBuJVZ93gkxFHXQ1jZ1aNi1fMt3GGOKTgq86OMDKuT+2O83D+pnemUsbFCo/Cte3/w9Bj+9g/VvucHRwgIPwch6wCpF8WmJJ9HkOBShAgeIJSPRgYnIDS3o1h8/Sq5pvvE8Pxw8DPNBz8Q2Ymmg9+hWvPkxNAQrUCAHJ1q1bFQMHDizU2DNRCfjy4B08iFf99ERxxpYY2PJyNCl0LndQgAIUoEDVF0hOThbWZ8p9GEjVb1HVbkGN7Q95EALcJsJiWwi+VE7V4lbdBWrse72Sdiz7o3J1DPuD/VG5BCpXbfj/R+Xqj/KoTWJiIqKjo3Hvzk3hTjs1mxi02vR2U/xyJhpBN5/i7rPMIJe4eLy4xpZ4K2KhGVtq8uJuClCAAhSgAAUoQAEKUIACFKAABShAAQqUhYDa4JZYmBi8er9dbeWrOm8ZESsx6LX5OCcv0EpZK3x2aAvGOhW6e7M6c7BtFKAABShAAQpQgAIUoAAFKEABClCgyghoDG5VmVa8ZEWlTmOx7frYl8yFp1OAAhSgAAUoUOoCslex7Ob5Us+WGVKAAhSgAAUoQAEKVB8Bqb2dbfVpDVtCAQpQgAIUoAAFKEABClCAAhSgAAUoUKMEpDKZrEY1mI2lAAUoQAEKUIACFKAABShAAQpQgAIUqD4C0qi796pPa9gSClCAAhSgAAUoQAEKUIACFKAABShAgRolwJXSa1R3s7EUoAAFKEABClCAAhSgAAUoQAEKUKB6CTC4Vb36k62hAAUoQAEKUIACFKAABShAAQpQgAI1SoDBrRrV3WwsBShAAQpQgAIUoAAFylBAkYQjwaH4NjwZGWVYTJFZKxKx/cBJjDubgPQiEzMBBShAAQpUdQEGt6p6D7L+FKAABShAAQpQgAIUqCwCGc+x+2QYtjxMhULLOilS4rBi6yE4z9kE2awtcNp2F8+0PFdtMkUyQq7dxYknaZn1UMhxO/I+/nwk17peavPmAc0CKbvwtoURrBxd0fO7K0UHF9PDsOyNBnC0MoTxsG1I0Zw7j1KAAhRQKaCrci93UoACFKAABShAAQpQgAIUKHOBDJw+GoxJt0wxZ1BXdDYGEmWmMCntcjPi8O3G47jQoQ+62cogKe38mV9+AZkXAo8dxURnLeZS6DRGwN5w+C7tgpZ/E5ICFKBAyQQKfdoYLb8IyZILsP7xck6O4t/iS7o0NF8plv+9rNwvnlPhm/wkJjdqik9Pp1V4VVgBClCAAhSgQNECT7HO1xASiSTnpWM/FgdTiz4zJ0Vpjn2lmVcxmsCkFKBADRdQvMDxiBdwdG+CiU1s8YqjLbraG6DQj5QazsTmU4ACFKCAZoF844YYpEpKy7w7/nFSmjJwlXdTKBQ5+8RjT5IzA0niOQXTai6WRylAAQpQgAIUAPTw+qr7SEpKUr4S7/yAHnp0oQAFKFCFBNISsHnfUTSbvxn6X2yD29pLOJJU4IbE9BfYc/gk2i3aBuMvtsJl5T9YcS/r9kBFOhLlCtw4cQh6n2+E5PNNeOVYvHArmwLhp0+gyYItMAjcBJOv98H3zwe4l72QV3o0xi/chPYnnues7ZXxJAydZu/Ah7fUrfalQPC+XdBRlrMZgy5xNa7yeaelI2xhW9i+uQlPct4aKTg+sSFcA4J4G2L5dAJLoUC1F8gX3MoObCkmehZquLhP0/6Cx+SRexDYzwN1zI1hau8BvwVBiBEGr6I+2FSfJ1RHHoQA1+YYPW8aBnTyRosGLmjpvxKXk8WqpmBPgD/WRNzAj/0bwMmpEYate8j76Qv1IndQgAIUoEDlEpBAR2YAfQMDGAgvfX3dYsxWUD/2qRtL08K/R486XpgVkqhkyIhchwEOTfDR4Wjs5jhaud4arA0FqoKAsI7Vwb1HMeJMMtp3bY89I17BDBc9JOWLGaXhxKEgDD4rR++enRA0ui3GGj7ExPXnsT/P4krOXu1xIeANXArojY1extARbhy0q++Krwd3wYlx3fBre2NcOhaMqde0X8urMKEEnp26IFRZTi8sbqRTOAn3lIGADhoOGoxGQZuwNy4rupV8Cpv+kKL/0HbQL4MSmSUFKFDzBArN+M0OUhUMVjmvvQbxpdUmD8VCv9E44r4YZ6LjER08B3YbR+Cj3+PQQNMHm9rzYjIDVWlhOHS1FZYeOY3Qq/vwVtRMTN8QLRzTR59l6zHaqQHe33EDERHh2Pi2Pe+l16qzmIgCFKAABSpOIBUnA71Rv64TmnX2x5y9dyDXujJqxj4NY6lOo/FY+aUd1oz5Aiee3sKaD6bj5rCVmN/dDn05jmotz4QUoECmgCLpLpafT4J3t474sZ0DerjWxchXG6OPce6KVmKaRacT0bNnO8xyt0Frx7qY5tsE7V7cxe8R2TOsJNCrZYxmdmZwF14uRpk/UczsaqOfqzW86tqgX0cPjLFPQ0hUPF5mERJDYxNlGeLLkVGVcnsrS50HYnDT49i0O/N3XdKx37DLYACGtOF05XLrBBZEgWouUGhBeXW3F95+t4mSouDxfx5mXv2VCmuGtLEzVKaRn/kF6x744vvA7qgjDhrOvgj88D/w2HYMyYPED7YFyg+24SNtkZz1wfa78MGm6bzEAdaA1BEDx/mhnkwsxRU9utbFitAwYYCzg3IXNwpQgAIUoECVETBE6w/WYrOtJ1xMX+DfnfPw0VAfJP8ZgnneJf/FpXEsHewHl9ErsGBve7zdaTde6I3CH793Kv2Fm6tMH7CiFKDAywikxT7FtXQjDKhXS+2s07TYJ7gkT0PEth0w3J5bWpowu8swQdOTCzNw69plTD8WheBY4bZtXX3op2RA11HdLYcv0xKeW+YC0noYMKQF5mzejegRQ3Bu016Y+f2BVvwRV+b0LIACNUWgUHBLbLg4a6tgECv7b11p/meLtP0tPMcqe7ZX+oO7uB93BB94HhNWE8naUhOg55mA5xL1H2xpms5TiMEtU5iZZpcvgUxPF6mpLzM1uaZ0M9tJAQpQgAKVT0AfzV4fgmZZFXOZshpPT7lgzvaL+NK7DVQO0Fo0QuMYLNwNUkv4gdHv3R74dOAWtFwxHt5GWmTKJBSgAAVUCWR9LRfX5RUugatKIfywEA8ZYLhfV8yokzeNBMYmesJZSSrPS4++hiGbwqHj1Qo/97USLmXH48etp7AzJ7VwW7eQXVp6BpciUSlY2XZK4dBvCFrP2ow/wi1xYp8NBh3wKPFYV9lax/pQgAIVL1Dou3N2gGqnrwv6/XGrUA0v+Lsp96V97AndpbkLzid86JGTVse2Nuzr+mPtxcXopGKmqULNB5tC03nCmltFbRJxaCuwfmVR5/A4BShAAQpQoFIISHQhk0mQlpZWrKGs4NhX5Bj89DBmfvonPN7qhrD5M7Cz38/ob5v5g7NgXpXChZWgAAUqrYCutSVayMJx5EY8UuuZ517UzlNjXWtzNNUJR2isAi4tzAqnUTMRKzk6DpcVNljR3QXdxZtDFDI0NMwTHJPow74WcCc2AckwhfBPlVtm4E08pAMjYZbQsyS5cgH6QmuzqDybO0tTQFLbF0Ne+QwrPlqEOw5vYkZTrnlWmr7MiwI1XSDf53redbZ8XUxzFpAX92e/mlll3iohXinJu99YlpuVzHsERphtwsy5hxCZKESb0pPw6Oph7A3JvMc684PtLFYLH2wHhA+2N7M+2Io6T2NnSS1gZRaH2xHxxfpRoDFPHqQABShAAQqUkYAi4Rx2bD6Of+8/QcKzuwj53yR8tdcSr7/hof2t9irGPo1jqeIx9k0bhz88F+HnNT9jRa9gfPzx73ig/KXHcbSMuprZUqDaCkgMHTC1rRn+PXYCQ49EYP/tR/jregzCU3OvNkuMHDBRWCD+3+Mn4f9XBPbeeoTD/0Zg2flYxGu4KK0vBMUaKmKx6q/bOBT1BBeEz8qIlDwnCHd09G1ihmeXQjHuVBQO3orGn7eeQoihZW4SPdgIM1Pv3IrCgcfC7Y9SE7Sy18H1i1ex/N9oHL52C79F8g6Qcn1zSmzRd0gHhB3+By6DB4Hr+ZerPgujQLUXKJuLFnqt8Pn2Neh2dQY6OJjC1NoZHUb9gJC4rEsz6j7YijpPU3foNMbQSX1wc7IrzM1t4bP6PoNcmrx4jAIUoAAFKlYgPRYhP45Dj2Z1YGXTBL7/dw89/vsHvu6qbv6BiuqqGvvUjqXpeLRzMj481B5Ll76J2jqW6LXwv+gXOgUTNtxFhqq8VBTJXRSgAAVyBXTwSvcu2PeaDeIunMPAn46g96Z/cc3MFp1s9LJmR8nQtXdX7HjVAnfPncWgtUfgs/USNkQmCjcaqt906zTBOh9H6Fw7B9+VB+C9Khgbkk3haSXeyihuErTo3B5rvQxx+q9g9Fl7FH77o4U1uezQUlzQXmIM/65u8E64gakhz5AmzPQa1MsLo4xjMXvDX/DZdg2bHyQpZ3FxK2UBIbBoYnIDS3o1h8/Sq8h9eKYENiN24FlGCoI/aSjMpcva0sPxwwAP9Fx8A6YmJV9zspRbwewoQIEqJiDZunWrYuDAgVWs2qwuBShAAQqUtUBycjIMDAzKuhjmr6UA+0NLKCar8gJ8r1euLmR/sD8ql0Dlqg3//2B/VC6BmlebxMREREdH496dm1zDr+Z1P1tMAQpQgAIUoAAFKECBlxc4ey/u5TOp4Bxa17Ws4BqweApQgAIUKA2BQgvKl0amzIMCFKAABShAAQpQgAIUqN4Cr639q8o3MG6mX5VvAxtAAQpQgALgzC2+CShAAQpQgAIUoAAFKECB4gswMFR8M55BAQpQgAJlIyC1t7Mtm5yZKwUoQAEKUIACFKAABShAAQpQgAIUoAAFylhAKpPJyrgIZk8BClCAAhSgAAUoQAEKUIACFKAABShAgbIRkEbdvVc2OTNXClCAAhSgAAUoQAEKUIACFKAABShAAQqUsYC0jPNn9hSgAAUoQAEKUIACFKAABShAAQpQgAIUKDMBBrfKjJYZU4ACFKAABShAAQpQgAIUoAAFKEABCpS1AINbZS3M/ClAAQpQgAIUoAAFKFBTBBRJOBIcim/Dk5FRkW1WJGL7gZMYdzYB6RVZD5ZNAQpQgALlIsDgVrkwsxAKUIACFKAABShAAQrUAIGM59h9MgxbHqZCoWVzFSlxWLH1EJznbIJs1hY4bbuLZ1qeqzaZIhkh1+7ixJO0zHoo5LgdeR9/PpJrXS+1efOAZoGUXXjbwghWjq7o+d2VooOL6WFY9kYDOFoZwnjYNqRozp1HKUABCqgUqNrBLfnfmNakKT49nQbk/bfKpr7ETnkQAlxbYnaoUI6qrSzLVlUe91GAAhSgAAUoQAEKUKBaCGTg9NFgTLplgPGDuuLEe52xtr01TEq7bRlx+HbjccwKT2Fwq7RtVeUn80Lgses4OKUZdFQdz7tPpzEC9obj+Kw2kBWVlscpQAEKqBEoFNwyWn4RkiUXYP3j5ZxTxL/Fl3RpaL5sLP97WblfPKdCNh1n9A+cif5OhZpRvtUpjXrIT2Jyo6xAXfnWnqVRgAIUoECFCbzAlV8C8JqbLWoZGMPO7TUsPC3XvjalOXaUZl7at4ApKUCBmi6geIHjES/g6N4EE5vY4hVHW3S1N0AFf7uv6b3C9lOAAhSocgK6eWssBqmS0jLvjn+clKYMXCkmeuYkUSgUOfvEY9mbeE7BtOUiIbVD++HDM4sqxm+BUq9b3nqUeubMkAIUoAAFqqdABh5sGo3XZ77AhFXH8EtrCyTevohHNvxJVz37m62iQDUVSEvA5kNn8eX5R7iRqgtnB3MYJCmgn7e56S+w5+gFzA2NxqV4BWzrOGBqn1YYV1cGiSIdiXIFbpw4BL0T4klSePd6Hac6m+Dm6ZPod/ghbiemQ1bLFF29PLGiW23UFT8m06Mx/v+O4kKHPjjR0VgZDMt4EoZXl1yDx0hf/MdJlbcCwft2QWefeEwHfkP9sKV5kfOKVGXEfcUSSEfYwg7odGYSwjYPgYVEPDkFxye6452M1bi67NX875di5c3EFKAABTIF8n2Dzg5s5Q1oZUOJ+zTtL3hMHrkHgf08UMfcGKb2HvBbEIQY8cZ75S1+LfDh0i/g08QGJqb10HnqHkTd3o7JXRvA0tgMzr3m4vjTrLv0FbE4ONsHrZ1tYGZsCjv3vgjcfz9zgcri3g6YcQ97Z/RGEzsLmFtYoXajrpj3jxAVS9mO4ZZdsTwqe9lLOU5MaogWgeeQeyNiBqIPzcLrTWrDwrwu2ryzGpcSs3QK1ENt24XkqRF/4PN+nqhrbgJTayd4j9mAiIwU7Anwx5qIG/ixfwM4OTXCsHUPOWWa/5dSgAIUqM4CaZfx44LD8Jr/E6b2dIO9lR1cvF5D2/ra/tBSP3aoG4fSwr9HjzpemBWSOYBlRK7DAIcm+OhwNHZzHKrO7za2jQJlIyCsY3Vw71GMOJOM9l3bY8+IVzDDRQ9J+VZwT8OJQ0EYfFaO3j07IWh0W4w1fIiJ689jf57FlZy92uNCwBu4FNAbG72MhdCTBHb1XfH14C44Ma4bfm1vjEvHgjH1mvZreRVutASenbogVFlOLyxupO3nbeGcuKc4AjpoOGgwGgVtwt64rN94yaew6Q8p+g9tx8BWcSiZlgIUUCtQ6PJwdpCqYLDKee01iC+tNnkoFvqNxhH3xTgTHY/o4Dmw2zgCH/0ekxmwSbuO7YdMMfvUA8SGfgXbDWPQdeQuePxwHjHRJzEhbQmmrbyetfigAkbNRmN18B3Exd9H0FRTrH93GnaWYJVJefB3mLjTBYsvxeDpk2iEHVgIH0ctB7W0MPy+xxCzT97FYyEQN+DOZxg+LwSpBUE0tT31LOYNGIVDDebi5P14PL17GmtGNYexRB99lq3HaKcGeH/HDUREhGPj2/bCkM6NAhSgAAWqq4AiNhinbjrDOmyKcBuOGUysXNH5/Z9x+YW2LVYzdmgYh3QajcfKL+2wZswXOPH0FtZ8MB03h63E/O526MtxSFt4pqMABbIEFEl3sfx8Ery7dcSP7RzQw7UuRr7aGH2Mc7/FimkWnU5Ez57tMMvdBq0d62KabxO0e3EXv0dkX1iWQK+WMZrZmcFdeLkYZf5EMbOrjX6u1vCqa4N+HT0wxj4NIVHxeS4+F78rDI1NlGWIL8d808uKnxfP0F5A6jwQg5sex6bdmb8Hk479hl0GAzCkjZ72mTAlBShAAQ0C+W5LFNPlvd0w73m3322i/LPg8X8eZl79lUokaGNnqEwjP/ML1j3wxfeB3VFHHDScfRH44X/gse0YEgdYC7ONbTBg8gR4WQjFW/hhoPdHuN5iIt5qYiJcpWmKQb7NMP/0VWHgagQdiQ06Du6fUxU3/0kY8u1bOHFFjgFtcnZr9Q+Jnh50E8Jx8dIteHduBEtnb3iIZ2rzSA6JOdGWt2EAACAASURBVHymTEFbSzEY5o1J04TpzlO2IfTLNshbDU1tf1bnBNbHDMDyOX3hZCQWbIvm7W21qjsTUYACFKBA9RLIeBqHJylncfaEL7affghvxSl80d8Pg+e44cLXbVHSr/uaxqHEwX5wGb0CC/a2x9udduOF3ij88Xun0l+4uXp1FVtDAQqoEUiLfYpr6UYYUK+W2jWy0mKf4JI8DRHbdsBwe25GacLsLsMETU8uzMCta5cx/VgUgmOTkKirD/2UDOg6ZgfE1FSKuyungLQeBgxpgTmbdyN6xBCc27QXZn5/oBVXkK+c/cVaUaAKChQKboltEGdtFQxiZf+tK80/n6jtb+E5zc6e7ZX+4C7uxx3BB57Hcr+cpyZAzzMBzxVicMsS1lbZk8b0YGCgCysby6xBUQJ9Az2kp6Zm3nqoiMfZ1dPx+YqDuBojh1QnDfHRCgx+oe3DhXN7RddrOtbNCsSXn/bA/BsSuL3+PuYtmo7ullr0nNQWDnVyf2rIhLUCbOIiESuOr3lINLU9/qEwU612C9TnVSItwJmEAhSgQPUWkAizFGpJLeAz+RN0rm0gNLYbPv2wE/6z9BDC57WFu5YTiwsqaRqHngtDZy3hB0a/d3vg04Fb0HLFeHgrL7ZwowAFKFACgazvwOK6vPm+EOfNSnnIAMP9umJGnby/IyQwNtETvkYnqSw4PfoahmwKh45XK/zc1wp2iMePW09hZ05qiXARHEhLz+BSHioFK9tOKRz6DUHrWZvxR7glTuyzwaADHlD5Y7SyVZ31oQAFqoRAoc+T7ADVTl8X9PvjVqFGXPB3U+5L+9gTuktzF5VP+FA5B0q56djWhn1df6y9uBidCl56FtbcKs6WdmkxxnxxD2MPnMFud3Popp3DzJa+iClOJtlphdlXXu99j13CSx57HivH9MW7c9vixiI96OmlQZ6zKH0GEp49R4ZxnkIyHuHufeEmxFaZZPL7dxFjaQdrMUaXJ86mqe3yExdh/fA2IoVsmmROcsvXComYUfFjdiWR4DkUoAAFKFDBAlK7ZmgqLB6flP+3XrFrVXDs0DQOiZkrnh7GzE//hMdb3RA2fwZ29vsZ/W0zK1Ewr2JXhidQgAI1SkDX2hItZOE4ciMeqfXMVc441bU2R1OdcITGKuDSwqxwGjUTsZKj43BZYYMV3V3QXfzerJChoWGeD0xhWQ/7WsCd2AQkwxTCP1VumYE38ZAOjIRZQs+S5MoL6IXWZlF5NneWpoCkti+GvPIZVny0CHcc3sSMpiW8ilOalWJeFKBAtRHI97med50tXxfTnAXkxf3Zr2ZWmdOOxCslefcby3KzknmPwAizTZg59xAiE4VoTXoSHl09jL0hWWtuFYNP8TwBiUYOaOQkBLaEoSjm8GpsCc+3SqXWucmv7cfmUxFIEFaJl5naws5MHzpSYblKWRO0aHQdR47eV67zlXp7I1bti8sfZ1I8xe7FS3D6SQYynp7B0m//gEW/AWhRIDyoqe263sMx3Ho7Zn+xD5HCU2QUKTG4HHwZwlgvjLAWsDKLw+2IeMa3tO5RJqQABShQhQX0hFsD/W2xXxhbgmNSIX90DN+tOIF6vXpC6zWOVYwdmsYhheIx9k0bhz88F+HnNT9jRa9gfPzx73ig/KXHcagKv5tYdQpUiIDEUHjqYVsz/HvsBIYeicD+24/w1/UYhKfmXq2VCN/jJwoLxP97/CT8/4rA3luPcPjfCCw7HwvhwYlqN30hKNZQeLDUqr9u41DUE1y4/wQRKXlOkJqibxMzPLsUinGnonDwVjT+vPU083u1mKtEDzbCzNQ7t6Jw4LFw+6PUBK3sdXD94lUs/zcah6/dwm/CFWcNVVBbNx4ooYDEFn2HdEDY4X/gMniQ9mNdCYvjaRSgQM0SKJuLFnqt8Pn2Neh2dQY6OJgKTwV0RodRPyAkTs2lGQ3mslcCsOD1SxjfqiU6duuJ93bboJ1boQlnGnLIPaSIv4R1E7rA2coM5vbemPNsJFZ93gkyqTNGfzMF0kWd4S48qeW1T8Lh3sUh/xUd3cYY9PpzzG5fF1ZOPvjdYQ7Wz/QufPVJU9v1vDBz2yp0uTIV3namMK/bBqN/uiTcqinUUacxhk7qg5uTXWFubguf1fc52GrVq0xEAQpQoKoKGKDt7E342nUPhjU0g5nbuzjuuRS/B75SeGxR10RVY4facSgdj3ZOxoeH2mPp0jdRW8cSvRb+F/1Cp2DChrvIUJWXunK5nwIUoIBSQAevdO+Cfa/ZIO7COQz86Qh6b/oX18xs0clGL+u7tAxde3fFjlctcPfcWQxaewQ+Wy9hQ2SicKOh+k23ThOs83GEzrVz8F15AN6rgrEh2RSeVuKtjOImQYvO7bHWyxCn/wpGn7VH4bc/WliTyw4txQXtJcbw7+oG74QbmBryDGnCTK9BvbwwyjgWszf8BZ9t17D5QVLmMijqq8EjJREQAosmJjewpFdz+Cy9mvWQsMw+sxmxA8+EJ8UHf9JQePdkbenh+GGAB3ouvgFTE67fUhJynkMBCggf+1u3blUMHDiQFi8jID+FKe5job/+AuZ7lSzw9jLF81wKUIACZSGQnJwsrIkorgXFrTIIsD8qQy+wDuUhwPd6eShrXwb7Q3ur8kjJ/igPZe3LYH9ob1UeKdkf5aFcucpITExEdHQ07t25yTX8SqNrMh6HITzOHm/ULpuJcKVRR+ZBAQpQgAIUoAAFKECB0hQ4ey+uNLOrkLxa19XmyVIVUjUWSgEKUIACxRCodtOMMiJWYtBr83EuZ3H4LA1ZK3x2aAvGOpVuAEr+z2do2XsdzMf+hDfrlG7exehHJqUABShAAQpQgAIUoEC5Cry29q9yLa8sCoub6VcW2TJPClCAAhQoZ4FqF9ySOo3Ftutjy41R9sp8XH4yv9zKY0EUoAAFKEABClCAAhSoDAIMDFWGXmAdKEABClBAFJDa29lSggIUoAAFKEABClCAAhSgAAUoQAEKUIACVVJAKpPJqmTFWWkKUIACFKAABShAAQpQgAIUoAAFKEABCkij7t6jAgUoQAEKUIACFKAABShAAQpQgAIUoAAFqqQAV0Cvkt3GSlOAAhSgAAUoQAEKUIACFKAABShAAQqIAgxu8X1AAQpQgAIUoAAFKEABClCAAhSgAAUoUGUFGNyqsl3HilOAAhSgAAUoQAEKUKCSCSiScCQ4FN+GJyOjIqumSMT2Aycx7mwC0iuyHiybAhSgAAXKRYDBrXJhZiEUoAAFKEABClCAAhSoAQIZz7H7ZBi2PEyFQsvmKlLisGLrITjP2QTZrC1w2nYXz7Q8V20yRTJCrt3FiSdpmfVQyHE78j7+fCTXul5q8+YBzQIpu/C2hRGsHF3R87srRQcX08Ow7I0GcLQyhPGwbUjRnDuPUoACFFApUIWDW3IET3VDsxkhSFPZtNyd8vD/YWTLOrC0sEXP5bcr9ipSEXXlYQpQgAIUoAAFKEABCtQcgQycPhqMSbcMMH5QV5x4rzPWtreGSWkDZMTh243HMSs8hcGt0rZVlZ/MC4HHruPglGbQUXU87z6dxgjYG47js9pAVlRaHqcABSigRqBQcMto+UVIllyA9Y+Xc04R/xZf0qWh+bKx/O9l5X7xnMq7yXFq+Zc422Mr7j15hIMTnLnQWOXtLNaMAhSgQM0RePEb/AwlkEjyvnThPPE45NoqyE9icqOm+PR0UZd5tMiwNPPSojgmoQAFKKAUULzA8YgXcHRvgolNbPGKoy262hvw+zrfHhSgAAUoUCyBfMEtMUiVlJZ5d/zjpDRl4CrvplAocvaJx54kZ36ZFs8pmLZYtSjTxKl4cC8ODo0bwEBVOenpRU+VVXUe91GAAhSgAAVeRqDWYPz2NAlJSVmvhxvwpk09+AzgleuXYeW5FKBAOQukJWDzvqNoNn8z9L/YBre1l3AkqcANiekvsOfwSbRbtA3GX2yFy8p/sOJe1u2BinQkyhW4ceIQ9D7fCMnnm/DKsXjh+7kC4adPoMmCLTAI3ASTr/fB988HuJe9kFd6NMYv3IT2J57n3JWR8SQMnWbvwIe31K32pUDwvl3QUZazGYMucTWu8nm3pCNsYVvYvrkJT3LeGik4PrEhXAOCeBti+XQCS6FAtRfIF9zKDmwpJnoWari4T9P+fMcy7mHvjN5oYmcBcwsr1G7UFfP+ybwOLY/cg8B+HqhjbgxTew/4LQhCjPghJw9CgGtzjJ43DQM6eaNFAxe09F+Jy8nZVVEg4exyDPO0h5lFHbj7zsfxx0Xcya94gs3veCJgfwKOzWgN5wa9sfjSX1nlTIVvW0+4tf4ER1OBF5d/xrjOLrAyMYGVcyeMFQbmF2LRynq1wIdLv4BPExuYmNZD56l7EHV7OyZ3bQBLYzM495qL40+LqEshUe6gAAUoQIGaLSCFTN8ABgbiSx8JhzbhsNVgvNVe5aUYFVQp2BPgjzURN/Bj/wZwcmqEYeseKm+3UTfWpoV/jx51vDArJFGZX0bkOgxwaIKPDkdjt5q8VBTMXRSgAAUyBYR1rA7uPYoRZ5LRvmt77BnxCma46CEpX8woDScOBWHwWTl69+yEoNFtMdbwISauP4/9eRZXcvZqjwsBb+BSQG9s9DIWbmWTwK6+K74e3AUnxnXDr+2NcelYMKZe034tr8LdJIFnpy4IVZbTC4sbFXnDXOEsuKcEAjpoOGgwGgVtwt64rN9Myaew6Q8p+g9tB/0S5MhTKEABChQUKHRbYnaQqmAgy3ntNYgvbTZ58HeYuNNFCCTF4OmTaIQdWAgfR2HwkIdiod9oHHFfjDPR8YgOngO7jSPw0e8xmfe+p4Xh0NVWWHrkNEKv7sNbUTMxfUN05rGk4wgcNhdxI/cj6nEkjkxMxNYtkZrXz5JYYPDP57Gkpwle/fosbt/Yj0luQpOFcvada4rFQRfw74VF6J5+ArMGTUVYr/UIf/IE1ze+jhufDsLM40mZzU27ju2HTDH71APEhn4F2w1j0HXkLnj8cB4x0ScxIW0Jpq28zhlg2rw5mIYCFKAABQoLCBeFtq37C/WG+aO11guO6KPPsvUY7dQA7++4gYiIcGx82x6S/2fvTsCiKvc/gH9nhn3fQQFjURNT3AgVxdxSS0UR0Mysm5qZmVleU3Ora2ne7nWpbl41r/7NJVxw33JHlMIVMVFERMAFQVCQdRjmf2bYYWZYRYTveZ5TeM573uVzhjmc33nf92i41kpaT8bqr22xdsJXCHkcg7UfzcKt0auxqJ8thqjKq2JNuYUCFKBAsYA8KwE/XcqCZ9+eWNXdAf1d7fHeay9jsJGoTJqlYZkYMKA75rezRhdHe3zh44buGQnYFlvUw0oEHUMjvGJrinbC6mJQcItiatsMw1yt4GFvjWE93THBLg/n4tMqnW9X0ynSNzJWlqFYHRlV0URVp/vEziMwsu1pBO4ruO/LCv4Ne/V8MepVnToth5lRgAJNV0CrfNPVDS+8/b6bMmn5/X8+KHj6KxbmDHnVVr8gjY4OtNKjcCUiBp69WsPC2RPuwh5p6K/YcN8HP87rh+aKi4mzD+Z9/B+4BwUj09cKEDtixCQ/tFD+Ye+K/n3ssTL8hnABswXCtmN3rh/+N7kjTITrnUnf2fi0/2osVJZYzUVsh+Efj4Gr8oImgjRsK4Iy/bFmendYKkS6TcfcgFV4P/AP/LObUJjYGr6fT4GHubDT3A8jPD/BzQ7T8I6bsfBUqS38fV7BorBrQj1bVz5hYjWryuQUoAAFKND4BfJvb8PGP9rhnZ/b1vo6Ij2v4Vo70g8u41di8QEvvOu9Dxk647Bnm3fdT9zc+E8ZW0gBCggCecmPESkzgG8LQ7VzZOUlpyJCmofYoF3Q31nClif07tJP1/TmwnzERF7FrOB4hCZnIVNLF7o5+dByVDfkkKekQQuIW8B3VAcs3LoPiWNH4WLgAZj67UHnKj/QadCtY+UoQIEGIFAhuKWok6LXVvkgVtG/tcQlT2IUabv9FlXcjKLeXloes7Bh/jx8PbM/FkWL0OaND/Ht0lnocT8B91KO46OOwSiO0eemQ6djOp7KFcEtE5iaFOUvgraOFnJzC7oe5yc/RGqzLnAorrEhWrxkpfZCqtFWbAFry5JOazIh7xTbDrAv/nLVgkMLO6SeTyoIrAnprYrT6wjDR7RgaW1RWLYIuno6kAn15KVWozp3UoACFKCASgEZIrdsxBXPCdjsUvshMjKN11rAULjBGPZ+f8wcsR2dVk6Gp4HKSnEjBShAgcoFCv9sV8zLq3hgrHJR7tLD2359MLt56TQiGBnrCEcVjpQod7AsMRKjAqMg8eiM9UMshUfdaVi14yx2F6cTQSJklyfL59sPVcI3tI1iOAwbhS7zt2JPlAVCDlrD/7A7VN6MNrSqsz4UoMALIaB2WOJuHxeVDbg8po1ye96nZeflSv9Y0TercBGZweODH7H3fBySondhbNZ/8P43JyGzaQY7+zH4vyvXcf164RpzF3eD/gZbNdfDoiwlVjawSE3Co+IIkhTJSY9rGFAqW5gy78R43Ct+2VQeEuIewNzWml+4JWeVP1GAAhSgwLMQkF7Cpi238dpYPzhUuCpXXqBIcVtXatpHSSXXWvnjY5g78yjc3+mLG4tmY/fDkoPL51V56UxBAQo0ZQEtKwt00M7A8eg0CFPYqly0rMzQVpKD8GQ5XKxN0KZ4NYaDnvobgOzEFFyVW2NSPxf0sxeGETa3RCvhDbPFi0gXdobAneR0FE/Rq6IGBYE3xQ4JDIQH2U+ypDW8f1CROTdVS0DUzAejul7AL58sxWGHAAS0rf0DnWpVgIkpQIFGLVDmz+jS82z5uJgUTyBfNJm84v+vWBYMTlc8KSm93Ui7JCtp5CFsPRuLdCFYpG1iA1tTXUjEEuh4jsVY00DM/eYI4jKFP6ZlWXh47RgOnCucc0sDtfarfhiavxO/HE5SXpCktzZizaEndfKkRtszAMP1t2Px8nNIFd6emHpuORZt04VvQFewp6yGk8JdFKAABShQa4Gc0I0ITBqAsT7W6vo9qC9DbA5L0xTcjk0rvh5qa7rWyh/h4BeTsKfjUqxfux4rB4bi00+34b7iwqoiL/UFcw8FKEABoUOWvgNmdDPF9eAQvHU8FoduP8SJm0mIyi0VNDdwwDRhgvjrp89gzIlYHIh5iGPXY/HDpWSklQrMl/fUFYJireTJWHPiNo7Ep+LyvVTE5pQ6QBjxMcTNFE8iwjHpbDx+j0nE0ZjHEGJoBYtIB9ZCz9Q7MfE4/EgY/ig2Rmc7CW5euYafrifiWGQMfourzeT05WvMf1cqILLBkFE9cOPYn3AZ6Q/O51+pGBNQgALVEKjBM+LKc5enRWDDlN5wtjSFmZ0nFj55D2vmeAvDDDtjzs616HttNno4mMDEyhk9xv2McylVGNBn0AsLN05B+gJvdPLqjQHTI+He/6Vaz02ibI2+NxZuWwznvQFwNTODa8AeOC3ahm9e41iNys82U1CAAhSgQM0FMnDi1x3IHjIWb5ir78GgNn/Jy3jrs8G49bkrzMxsMPSXe5CrvdbK8HD35/j4iBdWrAhAM4kFBi75L4aFT8eUzQnIV5WX2oK5gwIUoIBCQIKu/Xrj4OvWSLl8ESP+dxyDAq8j0tQG3tY6hVN4aKPPoD7Y9Zo5Ei5egP+64xi6IwKb4zKFgYbqF63mbtgw1BGSyIvwWX0YnmtCsTnbBB0tFUMZFYsIHXp5YZ2HPsJOhGLwupPwO5QozMlli06KCe1FRhjTpw0806Mx49wT5Ak9vfwHemCcUTIWbD6BoUGR2Ho/i7241J+Cmu8RAovGxtFYPrA9hq64VuqlWyJYj92FJ/k5CP17q5L7OFkUfvZ1x4Bl0TAx5iz/NYfnkRRo2gKiHTt2yEeMGNG0Fdh6ClCAAhSoIJCdnS3MMahXYTs3PB8Bno/n485S61+An/X6N9dUIs+HJp3638fzUf/mmkrk+dCkU//7eD7q3/x5l5iZmYnExETcvXOLU0o975PB8ilAAQpQgAIUoAAFKPAiCly4m/IiVrtMnbvYW7zwbWADKEABClAAjSO4lR+7Gv6vL8JFablTqt0ZXx7ZjolOz2T0JT8/FKAABShAAQpQgAIUaLICr6878cK3PWWu3wvfBjaAAhSgAAUaSXBL7DQRQTcn8nxSgAIUoAAFKEABClCAAvUkwMBQPUGzGApQgAIUqFRAbGdrU2kiJqAABShAAQpQgAIUoAAFKEABClCAAhSgQEMUEGtrazfEerFOFKAABShAAQpQgAIUoAAFKEABClCAAhSoVEAcn3C30kRMQAEKUIACFKAABShAAQpQgAIUoAAFKECBhijAmdYb4llhnShAAQpQgAIUoAAFKEABClCAAhSgAAWqJMDgVpWYmIgCFKAABShAAQpQgAIUoAAFKEABClCgIQowuNUQzwrrRAEKUIACFKAABShAgRdRQJ6F46Hh+D4qG/nPs/7yTOw8fAaTLqRD9jzrwbIpQAEKUKBeBBjcqhdmFkIBClCAAhSgAAUoQIEmIJD/FPvO3MD2B7mQV7G58pwUrNxxBM4LA6E9fzucghLwpIrHqk0mz8a5yASEpOYV1EMuxe24ezj6UFrleqnNmzs0C+TsxbvmBrB0dMWAf/9VeXBRdgM/vNkSjpb6MBodhBzNuXMvBShAAZUCL3BwS4rQGW3wyuxzyFPZtJKN0qj/w3udmsPC3AYDfrr9fJ8iVVJX7qYABShAAQpQgAIUoEDTEchH2MlQfBajh8n+fRDyQS+s87KCcV0D5Kfg+y2nMT8qh8GturZVlZ+2B+YF38Tv01+BRNX+0tskL2PqgSicnv8qtCtLy/0UoAAF1AhUCG4Z/HQFouWXYbXqavEhin8rVvGK8DLZWPz3qnK74piGu0hx9qevcaH/DtxNfYjfpzijQqMbbuVZMwpQgAIUaMQCTy+vwQRvF1jo68LA6mX0//Q3CPddVV+kZ/B567aYGVbZY54qZFmXeVWhOCahAAUooBSQZ+B0bAYc27lhmpsNujraoI+dHv9e58fjhRaY38kT31xVDIjNR1LwvzCmu3PBtd7CAW17BuC7U0/KBlnz4/FzfwNI7P6Gvemlmi6LwD86GWP4ptIbC/cr9+lAJBKVWfV9NuCxMkklZavJOzPQH8bt5+Oy4k+L3AMYZ+OMT4OlpSqVj1v/9oLxwNVIVHTPLFMPMSS6ZnDq/h7+cz6tYiD5yUYM0y9b35L662P4r39U0iZFNbIQFTQPo7xawsZID3omzUvVjT82ZYEycR5FkCorr2B0/KOsPGXgqvQil8uLtyn2pWYX/DGtOKZ82oaDmov7d1Pg8HJL6KmqlExWeVdZVcdxGwUoQAEKUKA2Annh+PffpiHUfQUup2QiKexbvHRoIiauYg/j2rDyWApQoJ4F8tKx9eBJvLJoK3S/CkKbdRE4nlVuQKIsA/uPnUH3pUEw+moHXFb/iZV3C4cHymXIlMoRHXIEOnO2QDQnEF2D04S/z+WICguB2+Lt0JsXCOPvDsLn6H3cLZrIS5aIyUsC4RXytHhURn7qDXgv2IWPY9TN9iVH6MG9kCjL2Qr/CM7GVT+fFhluLOkGm4BApBZ/NHJweloruE491aiHIcpTd+LTgKV47LcB4UnpeHTrLDZ/ORCOOmV/R2QxW7HprB7Mc/dh48HUikEhtSdKF0PXPURWVlbx+njHOzAT0le1bLVZV2uHLnw2pEAqzUXmw4v4T9crmPm373Gp/LM307ex/XFhXdMOYqJ9M4zf/6Sw7o+x7S1DoVT1bYIwZuvmKj94TzwKu0m/IiwuBSl3QqtVUyZuvAJlgltFgS35tI4VWqzYpml7mX35d3Fg9iC42ZrDzNwSzVr3wbd/FkR7pXH7MW+YO5qbGcHEzh1+i08hSfG7LT2Fqa7tMf7bL+Dr7YkOLV3QacxqXM0uqooc6Rd+wuiOdjA1b452Potw+lElI/nlqdj6t46YeigdwbO7wLnlICyLOFFYzgz4dOuINl3+jpO5QMbV9ZjUywWWxsawdPbGROHCnKEoWlmvDvh4xVcY6mYNY5MW6DVjP+Jv78TnfVrCwsgUzgO/wenHldSlsvbJk/H7gqHo4mwNUyMT2LYbgnmH7hVcrGtQB7XOFc4sN1CAAhSgwHMRyL+P+Ad2GDB6EFroS2Do4oMx/UwRcyO20uH2BfXNwf6pY7A2NhqrhreEk1NrjN7wQPkHsbprQF7Uj+jf3APzz2Uqs8iP2wBfBzd8ciwR+9Tk9VxsWCgFKPBiCAjzWP1+4CTGns+GVx8v7B/bFbNddJBVJmaUh5AjpzDyghSDBnjj1PhumKj/ANM2XcKhUj1VnT28cHnqm4iYOghbPIyEoWwi2L7kiu9G9kbIpL7Y6GWEiOBQzIis+lxeFRFF6OjdG+HKcgZiWetKB8xVzIJbaiAgQSv/kWh9KhAHUgrvmbLPInCPGMPf6i6EMhrvIou9jCuZ3fDOJG84GulA37wFOr45QejJZSZ8wosWGSK3bEK4xywsf88cv2/cU3B/XEUWsbbQe0mvZNXVLrjFr1rZVSykCslEYi1oaWlB19QFA995Ay3ionC7fHBL6JOprVtYV10dSIReZ5Li+uuisOpQ1yakHcA3X51Dj+U7sfzd7nCyMICB+UtVqB2TNAWBCiP0ioJU5QNZzusioVirskhD/41pu12EQFISHqcm4sbhJRjqKFw8pOFY4jcex9stw/nENCSGLoTtlrH4ZFtSQXQ67waOXOuMFcfDEH7tIN6Jn4tZmxML9mWdxrzR3yDlvUOIfxSH49MysWN7nOb5s0TmGLn+EpYPMMZr313A7ehD+KyN0GShnIMX22LZqcu4fnkp+slCMN9/Bm4M3ISo1FTc3PIGomf6Y+7prILm5t3EziMmWHD2PpLD/wGbzRPQ5729cP/5EpISz2BK3nJ8LyKFPwAAIABJREFUsfpm5T3ANLVPaKXBK+PxS+gdpKTdw6kZJtj0/hfYXTSbZnXqUJlzVU4i01CAAhSgwLMV0OmJcZOaI+y3w4jLzkfm7b3YfEIL/Qd1qOKcI7oY/MMmjHdqiQ93RSM2Ngpb3rWDSMM1QNJ6MlZ/bYu1E75CyOMYrP1oFm6NXo1F/WwxRFVez1aAuVOAAi+4gDwrAT9dyoJn355Y1d0B/V3t8d5rL2OwUcltuyLN0rBMDBjQHfPbWaOLoz2+8HFD94wEbIst6mElgo6hEV6xNUU7YXUxKLhFMbVthmGuVvCwt8awnu6YYJeHc/FpVXwAoBpX38hYWYZidWzMURXVzX9uW8XOIzCy7WkE7iu478sK/g179Xwx6lWd51anZ1nwsPlzMMRBDC1XL3QzP47vJi3B5iMXcCtF6FVRfpFexOYtN9H1rbcQMNofdic3Iqi4i2L5xFX/d5XKrnp2VU6ZL/zOn9z6Ox526g73Op5ETXr5GE5l9IT/UOHvnSrXiAmbikCF4FbR/Frlhxneft8NirX88ueDTCjWc4mFgSAhgUhHB1rpcbgSEYMUqRZMnD3h3lwM6flfseG+D+bP64fmumLoO/tg3sdtcCwoGMpnyGJHjJjkhxaKXwIdV/TvY4/r4TeUFzBp2HbszvXDrMkdYSJEhW36zsan/VUONCxfxYr/Ftth+Mdj4Kq8oImEvLciKNMfc6Z3h6UQbbboNh1zA7IRFPgHlP3NxNbw/XwKPMyFSLSzH0Z4PoVh32l4x80YEsO28Pd5BVHh1yq/0GpoH0TW6DlyODrZCWOtxUZoM+YzjLI8h5C/Csc3V6MOlTpXFOEWClCAAhSodwFDtBnoh+ZHRsHJUBvGru8htNdSLHzTolZ/sGm+BkjgMn4lFrtsxrveQzD3wTis+dq77idurndLFkgBCjwPgbzkx4iUGaB7C0O1c2TlJaciQpqHfUG7oL8gEHrCarD0EkJkUtxP1/TmwnzERF7ByFX74fjtdlh+H4z/JOcjR6puyOHzEGCZVRYQt4DvqA4I3boPifkZOBF4AKZ+o9C5joMfVa7PM07YxXcYOpoJ4ReTN/DjiU0YYxSCFZMHob2tFVxf/zuCYkqCXDmhmxCY0ANvDXeEbueRCHgpFJu2xWruxFFc/xwc+sgZVlZWhastui+8VHBfWoWyIQwKLXu8FVp8sK8GQ0VzsPsdE+XcXxKDFhi4RoIPvnoXLWvUObJ8nUralJ/6CI8NrGGl/4xPILN/IQW0VNVa0WurfHCr6N9a4rIx0m6/RRVnUdTbS0voUrlh/jx8PbM/FkWL0OaND/Ht0lnocT8B91KO46OOwSiO0eemQ6djOp7KrYQgkglMTYryF0FbRwu5uQVdj/OTHyK1WRc4FNfYEC1eslJ7IVXVruJtYgtYW5bE9WRC3im2HWBf/OWqBYcWdkg9nyR8MdgK9bKAVXF6HaHbpxYsrS0KyxZBV08HMqGelV5qNbQP8jRc+GUW5qz8HdeSpBBL8pAmzNA3MqOw62416iDX6AwYMsyt8ePBnRSgAAXqQ0D+eBemjliM9M+P4cFUT5iknMH3b4/C0H844o+vPUquk9WsjKyya4BwgzHs/f6YOWI7Oq2cDE+DahbA5BSgAAWKBAr/plTMy6t4YKxyUe7Sw9t+fTC7eek0IhgZC5NhC5NDq1pkiZEYFRgFiUdnrB9iKfxFnoZVO85id3Fi4SZayC5Pll+N+YlUlcRt9SMghsOwUegyfyv2RFkg5KA1/A+7Q+XNaP1UqN5K0XcdjC/+K6xCiTn3z+I/EwPw3gQndD46BU7iTJzcuB3Jr30Dn2bCB1rkjpEjW+Nfm7bg+tQ5aFtpLXXQ+9sQ/OJrVJhSuIc2sSl21Vi28ojyxwvTte/9EJ1+LipYDLE4H/llbnTlkAm/d8INa6l7cV0M2/gIu8YYQy59guj9X8JP6InWIvQQPnKp0J+mklaVr1NJm+TClEdmmfFIVnxtNM5Of5XYcLcmgQqftKIA1W4fF5XHXR7TRrk979Oy83Klf+xekl5kBo8PfsTe83FIit6FsVn/wfvfnITMphns7Mfg/65cx/XrhWvMXdwN+hts1VwPizKVWNnAIjUJj4p/saRITnpceUBJZSvKFqbMOzEe94rHBOchIe4BzG2t6+0LNy9iGSZ8dRfDNpxHTPwdxEbvxeSW4hpdrCW1cFbJxY0UoAAFKFDnArK4K7j6tDvGfihMsiv0ZtZr1hMfjG6Hm0dOIq7SpyUl1REprhSFz0EUWyu7BsgfH8PcmUfh/k5f3Fg0G7sflhxcPq86bzQzpAAFGpWAlpUFOmhn4Hh0GlQMtlK2VcvKDG0lOQhPlsPF2gRtildjOOipvwHITkzBVbk1JvVzQT97YRhhc0u0Et6yVryIdGEnzD19JzkdxVP0qtAtCLwpdkhgIDzIfpIlreH9g4rMualaAqJmPhjV9QJ++WQpDjsEIKBtjbr1VKvMhpZYt5kXPp7QB1rXr+Km4t4z7Xds3HUfmSf+jg7N7GBnZ4/+S68jJ3wLNodXmLBKRXNE0LOwh4ODQ+FqD1sT1d3hKpStzK388Q6wt9AvCVULo4dsLR8jLj691J8awr3ynXvQs7GBsYpfYZG2KVoNHoMBxmdx6KyKtzyqaEXZTeXrVNIm7Y798JrhaezYVzh1UaV5MUFTEigT3Co9z5aPi0nxBPKK7UXrK5YFg9MVT0pKbzcqmv1N0JNGHsLWs7FIF34fFZFjW1NdYaidBDqeYzHWNBBzvzmCuEzhj2lZFh5eO4YD5wrn3NIgr/2qH4bm78Qvh5OUFyTprY1Yc6jcK1Q1HK9pl7ZnAIbrb8fi5eeQKrw9MfXccizapgvfgK5VnPdEU+5V2yd/mo5MAwe0djITAmrCa1uP/YLtUTV7g4t2LZyrVlumogAFKECB2gpoOXdGR+M/sGnteTwSrpfSh6FY+9sFGLu1RbMKj57UlCY2h6VpCm7HlrxuW+M1QP4IB7+YhD0dl2L92vVYOTAUn366DfcVF1YVeakplZspQAEKKAVE+g6Y0c0U14ND8NbxWBy6/RAnbiYhKrdU0Fz4+3aaMEH89dNnMOZELA7EPMSx67H44VIy0koF5suT6gpBsVbCC5fWnLiNI/GpuHwvFbE5pQ4QRkQMcTPFk4hwTDobj99jEnE05jGEGFrBItKBtdAz9U5MPA4/EoY/io3R2U6Cm1eu4afriTgWGYPf4mozOX35GvPflQqIbDBkVA/cOPYnXEb6oynM5y+7FYivF25E8PV7eJIjRfqdU1ix6hjk7l3gpiXHo/0bcUA8CuvDr+Ly5csF67WzWNIzDoGbw4qDxvnSbGRnF605ZYbnlt2XjZxcxbtGhVttjWVXerYKEmi1x3Dfl3Bq6VfYdeMxpHkZiDvxvXCvLMcQf+8yLwOQ5+chL09Ys1Nwfc8GHLzbHK1da9Y9XF2bYPIm5sz3QMhnfpi+6U/EKd68+Diuio1hssYuUNU/n6vlIE+LwIYpveFsaQozO08sfPIe1szxFoYZdsacnWvR99ps9HAwgYmVM3qM+xnnUqrwiNqgFxZunIL0Bd7o5NUbA6ZHwr3/S8IzmDpY9L2xcNtiOO8NgKuZGVwD9sBp0TZ881rNfhlrUiPtrlOx+I0ITO7cCT37DsAH+6zRvU0NO+rWxrkmlecxFKAABShQfQHjIfj+t89humUEXE30YfryW9hl/XdsWjwIihdhV2mRvIy3PhuMW5+7wszMBkN/uQe52muADA93f46Pj3hhxYoANJNYYOCS/2JY+HRM2ZyAfFV5VakSTEQBCjRdAQm69uuNg69bI+XyRYz433EMCryOSFMbeFvrFA5Z0kafQX2w6zVzJFy8AP91xzF0RwQ2x2UKAw3VL1rN3bBhqCMkkRfhs/owPNeEYnO2CTpaKoYyKhYROvTywjoPfYSdCMXgdSfhdygRWo626KSY0F5khDF92sAzPRozzj1BntDTy3+gB8YZJWPB5hMYGhSJrfez2ItL/Smo+R4hsGhsHI3lA9tj6IprpV66JYL12F14kp+D0L+3KrmPk0XhZ193DFgWDRPjxjXLv1jo6GF4+1dMHfAKbI0MYNv5fQSZTMZvv7wPB9ED7Pr1KCzfmQJ/V0WvrcK1WQeM++gNPNm+EQXvN8vB3vdtoK+vX7w2n3iwcF6sivuMvZbgutBHQmPZVY4C6ODVuTuwpn8MFvRxhKG+FTpPPArnfwhvKxxS+o2POdjzrgW0tXWgY2SPnrMi0W3pZsztproXmeYPl/o2CX1B0fqjHQhe2RsJP76Nzs3NYd26t+bsuLfJCIh27NghHzFiRJNpMBtKAQpQgAJVE1A8IVS8WppLwxDg+WgY54G1ePYC/Kw/e+PqlMDzUR2tZ5+W5+PZG1enBJ6P6mg9+7Q8H8/euKGVkJmZicTERNy9c6veppRqaAasDwUoQAEKUIACFKAABShQC4ELd1NqcXTDOLSLvUXDqAhrQQEKUIACtRKo4bi3WpVZ5wfnx66G/+uLcFFaLmvtzvjyyHZMdKpyv8ta1a2h1KNWjeDBFKAABShAAQpQgAIUqILA6+tOVCFVw06SMtevYVeQtaMABShAgSoJNIrglthpIoJuTqxSg59looZSj2fZRuZNAQpQgAIUoAAFKEABhQADQ/wcUIACFKBAQxEQ29naNJS6sB4UoAAFKEABClCAAhSgAAUoQAEKUIACFKiWgFhbuyZvMKhWGUxMAQpQgAIUoAAFKEABClCAAhSgAAUoQIFnIiCOT7j7TDJmphSgAAUoQAEKUIACFKAABShAAQpQgAIUeNYC9TPT+rNuBfOnAAUoQAEKUIACFKAABShAAQpQgAIUaJICDG41ydPORlOAAhSgAAUoQAEKUIACFKAABShAgcYhUCG4JVp+GYq1/KJuOxaJoFy5UIACFKAABShAAQpQgAJNW0CeheOh4fg+Khv5z1NCnomdh89g0oV0yJ5nPVg2BShAAQrUi0CF4FbpUtUFtNRtr5casxAKUIACFKAABShAAQpQoGEK5D/FvjM3sP1BLuRVrKE8JwUrdxyB88JAaM/fDqegBDyp4rFqk8mzcS4yASGpeQX1kEtxO+4ejj6UVrleavPmDs0COXvxrrkBLB1dMeDff1UeXJTdwA9vtoSjpT6MRgchR3Pu3EsBClBApYCWyq2FG+XTOqrcrW67ysTPbKMUoTPaY4LWrwhf/Co0NuSZ1YEZU4ACFKAABShAAQpQgAI1F8hH2MlQfBZjgoX+fdDLCMjUNoFxzTNUfWR+Cr7fchqXewxGXxttcNyJaqY626rtgXnBJzHNWWNfioLiJC9j6oEo+KzojU5/1FkNmBEFKNDEBCp82ygCV6qCV+q240vhmYxibaiL9Aw+b90WM8PyGmoNWS8KUIACFGiiAhlX/ocPvZ1hrq8Pi5Z9MTXwZt08sa7La19d5tVEzzObTQEKaBCQZ+B0bAYc27lhmpsNujraoI+dHircpGjIgrsoQAEKUIACvG7wM0ABClCAAhR4HgJZwZjr/3dE9FqDK8nJuLK6Jy5NHYXFl6TPozYskwIUoEDNBPLSsfXgSbyyaCt0vwpCm3UROJ5V7sG3LAP7j51B96VBMPpqB1xW/4mVdwuHB8plyJTKER1yBDpztkA0JxBdg9OEoWxyRIWFwG3xdujNC4Txdwfhc/Q+7hZN5CVLxOQlgfAKeVo8t1d+6g14L9iFj2PUzfYlR+jBvZAoy9kK/wjOxlWzk17do2S4saQbbAICkVr80cjB6Wmt4Dr1VN081KlulZieAhRodAIVgltq59NSM3G8yvT5d3Fg9iC42ZrDzNwSzVr3wbd/FvyxLo3bj3nD3NHczAgmdu7wW3wKSYovOekpTHVtj/HffgFfb090aOmCTmNW42p2kbkc6Rd+wuiOdjA1b452Potw+lFlPcZysH/qGKyNjcaq4S3h5NQaozc8UI6zz7i6HpN6ucDS2BiWzt6YKFyIMxrd6WWDKEABClCgoQrkXT2Ag4lCb61Z/eFoaAiHvjPxWd9Y/PprGGoX3lJ/7VN3Dc6L+hH9m3tg/rlMJVd+3Ab4Orjhk2OJ2KfmOtpQXVkvClCgHgWEeax+P3ASY89nw6uPF/aP7YrZLjrIKhMzykPIkVMYeUGKQQO8cWp8N0zUf4Bpmy7hUKnJlZw9vHB56puImDoIWzyMIBEGDtq+5IrvRvZGyKS+2OhlhIjgUMyIrPpcXhUlROjo3RvhynIGYllrScUk3PIMBCRo5T8SrU8F4kBK4f1b9lkE7hFj+FvdofsMSmSWFKBA0xOoENwqTaAycCUkULe96Fhp6L8xbbcLlkUk4XFqIm4cXoKhjsLFQxqOJX7jcbzdMpxPTENi6ELYbhmLT7YlFUzsmHcDR651xorjYQi/dhDvxM/FrM2JBfuyTmPe6G+Q8t4hxD+Kw/FpmdixPa6St7DoYvAPmzDeqSU+3BWN2NgobHnXDqKsEMz3n4EbAzchKjUVN7e8geiZ/ph7OqvpfQLYYgpQgAIUeD4CchUPaET5uPfXNRT97V+ziqm59mm4BktaT8bqr22xdsJXCHkcg7UfzcKt0auxqJ8thqi6jtasYjyKAhRoZALyrAT8dCkLnn17YlV3B/R3tcd7r72MwUYlM1op0iwNy8SAAd0xv501ujja4wsfN3TPSMC22KIeViLoGBrhFVtTtBNWF4OCWxRT22YY5moFD3trDOvpjgl2eTgXn4baTDaib2SsLEOxOjKqUm+fSLHzCIxsexqB+wru+7KCf8NePV+MelWn3urAgihAgcYtoHEedlVzbyk41G0vohLp6EArPQpXImLg2as1LJw94S7slIb+ig33ffDjvH5orriYOPtg3sf/gXtQMDJ9rQCxI0ZM8kMLbUVOrujfxx4rw28IFzBbIGw7duf64X+TO8JEuN6Z9J2NT/uvxsIanB9p2FYEZfpjzfTusFQIdJuOuQGr8H7gH/indx8oi+dCAQpQgAIUeIYCWu0Gor+VP3761yn0/rIb8Oe/seJgOvLbpiNDEfeq49mOpec1XINH+sFl/EosPuCFd733IUNnHPZs8677CZ2foSezpgAF6l8gL/kxImUG8G1hqHaOrLzkVERI8xAbtAv6O0vqmCf07tJP1/TmwnzERF7FrOB4hCZnIVNLF7o5+dByVDfksP7bzxKrISBuAd9RHbBw6z4kjh2Fi4EHYOq3B51541UNRCalAAU0CVQIbqkNXKmZNF5Vei2PWdgwfx6+ntkfi6JFaPPGh/h26Sz0uJ+AeynH8VHHYBTH6HPTodMxHU/liuCWCUxNiv6aF0FbRwu5uQVdj/OTHyK1WRc4FNfYEC1eslJ7IdXUaJmQV4ptB9gXf5lqwaGFHVLPJymfBPE7VpMe91GAAhSgQJ0IGPTBom2LMG3qOLT/4QmM3Hzw9vD2uJRkAdM6Dmwp6ivTeA0GDIUbj2Hv98fMEdvRaeVkeBrUSSuZCQUo0JgFCr+r5MqeqGq+uJS79PC2Xx/Mbl46jQhGxjrCUapHTsgSIzEqMAoSj85YP8RSeNSdhlU7zmJ3sacIEiG7PFl+wSiPxuzcKNomhsOwUegyfyv2RFkg5KA1/A+78433jeLcshEUaBgCFYJbdVItkRk8PvgRe4VVmnwJqycMwfvfdEPk6Gawsx+DdVeWwbt8D1Rhzi1Ni8TKBhapSXgkPKxppRweL0Vy0mPkO2o6qmCfSHHJKzX6Q5lXYjzuCZEsN2VeeUiIewBzW2t+wVbOyRQUoAAFKFAnAiKYdJ6E/4VMKshNnoj1Pm3xsldXmKm5R6xOsRWufTYarsFCxvLHxzB35lG4v9MXNxbNxu5h6zHcpqAi5fOqTj2YlgIUaLwCWlYW6KAdhePRachtYVby8LpUk7WszNBWEoXwZDlcOphWTKOmI1Z2Ygquyq2xsp8L+ukrvqS00Uq/1JejSBd2hsCd5HRkwwTCjyqXgsCbYpcEBsIT7CdZUuW0JhrnZlGZEzfWVkDUzAejun6JlZ8sxR2HAMxuyznPamvK4ylAgRKBCt/r6ubTUrt9WzeIhLX0Io08hK1nY5EuBI+0TWxga6oLiVgCHc+xGGsaiLnfHEFcphBtkmXh4bVjOHCucM4tDWdG+1U/DM3fiV8OJykvSNJbG7Hm0JPKn9SIzWFpmoLbsWnFabU9AzBcfzsWLz+HVJkMqeeWC0/PdeEb0JW9tjScA+6iAAUoQIG6FBCG6YQF49q9x0h/FI1j/5qABVfewKzxbYRbsFouKq99Gq7B8kc4+MUk7Om4FOvXrsfKgaH49NNtuK+8A6x4Ha1l7Xg4BSjQSARE+g6Y0c0U14ND8NbxWBy6/RAnbiYhKrfkqbLIwAHThAnir58+gzEnYnEg5iGOXY/FD5eSkVbq4XN5El0hKNZKnow1J27jSHwqLt9LRWxOqQOEER9D3EzxJCIck87G4/eYRByNeQwhhlawiHRgLfRAvRMTj8OPhOGPYmN0tpPg5pVr+Ol6Io5FxuC3uNpMTl++xvx3pQIiGwwZ1QM3jv0Jl5H+4Hz+lYoxAQUoUA2BCsGt0seqDWgtv6ycVF7dIk+LwIYpveFsaQozO08sfPIe1szxFoYZdsacnWvR99ps9HAwgYmVM3qM+xnnUtQ8sildgEEvLNw4BekLvNHJqzcGTI+Ee/+XKr8BkLyMtz4bjFufu8LMzAZDf7kHub43Fm5bDOe9AXA1M4NrwB44LdqGb17jGAx155TbKUABClCgrgXycGffLAxu1wyWjt3x8REXfHtwNfxs66Dblqprn9prsAwPd38ulO+FFSsC0ExigYFL/oth4dMxZXMC8lXlVdcUzI8CFHhBBSTo2q83Dr5ujZTLFzHif8cxKPA6Ik1t4G2tU9g7Sht9BvXBrtfMkXDxAvzXHcfQHRHYHJcpDDRUv2g1d8OGoY6QRF6Ez+rD8FwTis3ZJuhoqRjKqFhE6NDLC+s89BF2IhSD152E36FEYU4uW3RSTGgvMsKYPm3gmR6NGeeeIE/o6eU/0APjjJKxYPMJDA2KxNb7WZW8nEp9/bhHg4AQWDQ2jsbyge0xdMU1lLw8UwTrsbvwJD8HoX9vVXIfJ4vCz77uGLAsGibGnOVfgyx3UYACGgREO3bskI8YMaI4SVHQSjGXVrq0IOhkrC0uDmZV2F7Ya0se8IeGYriLAhSgAAVeNIHs7Gzo6em9aNVutPXl+Wi0p5YNKyfAz3rD+kjwfPB8NCyBhlUb/n7wfDQsgaZXm8zMTCQmJuLunVsVp5gqPUG8IqhVtMSMa1v8c5ntb5Z67UnTs2SLKUABClCAAhSgAAUo0CQFLtxNeeHb3cXe4oVvAxtAAQpQgAKoGNxSh+JsUn4G+IKUzobN1B1Sb9vzY1fD//VFuCgtV6R2Z3x5ZDsmOmkcfVlv9WRBFKAABShAgboS4LWvriSZDwUoUFOB19edqOmhDea4lLl+DaYurAgFKEABCtRc4Nm8LbHm9anRkWKniQi6ObFGx/IgClCAAhSgwIsowGvfi3jWWGcKNC4BBoYa1/lkayhAAQq8yAJiO1ubF7n+rDsFKEABClCAAhSgAAUoQAEKUIACFKBAExYQa2trN+Hms+kUoAAFKEABClCAAhSgAAUoQAEKUIACL7KAOD7h7otcf9adAhSgAAUoQAEKUIACFKAABShAAQpQoAkLcKb1Jnzy2XQKUIACFKAABShAAQpQgAIUoAAFKPCiCzC49aKfQdafAhSgAAUoQAEKUIACFKAABShAAQo0YYEyb0vMlcnxzqZIxDzKqjLJ/gntYWusU+X0TEgBClCAAhSgAAUoQAEKUIACFKAABShAgboSKBPcSs/OUwa2Tk/pVCZ/ueJfcuV/lUvRT2KRCPraYpxPSIeHg3Hxfv5AAQpQgAIUoAAFKEABClCAAk1QIGcv3rUbhf1GzdBl2h4cnP4KJJoYZDfww9DB+P7Pu0gdsAmPtoyArqb03EcBClBAhUCZYYn5hQn0hICVImhVtBoIPxvoSIpXQ+FnxarYv+/aI0zefhNr/rivIvs62CT9A1+4tcXMsLw6yIxZUIACFKAABRqRgPQUprp2woLwOr5G8trbiD4kbAoFKECB5yCg7YF5wTfxe2WBLUXVJC9j6oEonJ7/KrSfQ1WfRZHSqP/De52aw8LcBgN+uo2i++wKZfF6W4GEGyhQU4FazbmlCGz94/c7yBd6dcU/zqlpHUqOk57B563LBbIkzhg+by6GO9WqqrWvG3OgAAUoQAEKVEsgB2ErRqNfJyeY6Wih+UdHkVvuePmTMKx4uwvsjQ1g4tgVf1t1GU+rVQYTU4ACFKAABSjQsASkOPvT17jQfwfupj7E71OcwTvZhnWGWJvGKVD296xk5GGlrS0d2BrUxgJfD3Kq9JgaJRDbwuvtt9Hdhl8JNfLjQRSgAAUo8JwEhKH7Dj3w7j/W4fsAOxV/2Kbh9y9G4bvH72JffCpig/yQMG8k5p7KfE71ZbEUoAAFKECBZyEgw40l3WATEIjU4vvNHJye1gquU0+hDrpIPItK1yLPXNy/mwKHl1tCrxa58FAKUKB6AmojRhm5+cq5tFQt5QNbU3o6lE0mT8bvC4aii7M1TI1MYNtuCOYdulfcHTM3dg/mDOsIezNjmFg5wXPCZsTm52D/1DFYGxuNVcNbwsmpNUZveAB5cVfNnEq/FKVx+zFvmDuamxnBxM4dfotPIakaATtVbeU2ClCAAhSgQM0EdNDebwreG9oTrSxUzDaScQIbd2rh7TkfoZOZLixe/RRzRuZi66/ByK5WgflIPDIfb7g1g7mZPV792y+IKBUfy7i6HpN6ucDS2BiWzt6YuC4CGYX5a9pXrSowMQUoQAEKUECtgASt/Eei9alAHEgpvDnLPovAPWIMf6t745pfS56KrX/riKmH0hE8uwucWw7CsmuJGu+Ni9n2eciqAAAgAElEQVTy7+LA7EFwszWHmbklmrXug2//lCp38z5X7YeLOyhQLKAyuKWYO37qzpv4JCgap2OelOEqHdh6Q+ixNbv/S8jMlSE5o+AXryCxHAavjMcvoXeQknYPp2aYYNP7X2C3IqvcC/jWdxyOtPwGZ+6l4XFCGNaOaw8jkS4G/7AJ451a4sNd0YiNjcKWd+0gKi69ki9FaTiW+I3H8XbLcD4xDYmhC2G7ZSw+2ZZUPAE+zzsFKEABClCgoQjI4q7helYbdHil6I3DOmjb4WWkR17DPbWTc6iofd4NbNuvjwVnEvDo9k743vkSb397rmAIZFYI5vvPwI2BmxCVmoqbW95A9Ex/zD0tvBVZ0z4VxXATBShAAQpQoKYCYucRGNn2NAL3FdybZQX/hr16vhj1atE1sKY5N7DjROYYuf4Slg8wxmvfXcDt6EP4zE2Yv1rdvXGp6ktD/41pu12wLCIJj1MTcePwEgx1FB6O8T63gZ1kVqehCqgMbikqq5gwXirLxxf7YhByuyDAVb7H1teDnKEtFmHkhr8gyy/VRUpkjZ4jh6OTnQEkYiO0GfMZRlmeQ8hfUkjDNmJTki/+sXAInAxEEOvZoL1Xe1iVRLHUWmn6UpSe/xUb7vtg/rx+aK4rTIbv7IN5H7fBsaBgcICHWlLuoAAFKECB5yQgz0hHhsgQhvpFFRDB0MgQyHiKjOr0OhaZYej06egm9A4Tm3visy98kLIzCIo55qVhWxGU6Y8507vDUksLFt2mY25ANoIC/0Cmhn2lH1c9Jx4WSwEKUIACjUlA3AK+ozogdOs+JOZn4ETgAZj6jULnxjKDvKZzpeHeuPRhIh0daKXH4UpEDFKkWjBx9oR7czF4n6sJl/soUCKgMrglEgJN//JxRXcnU2WAa8beGPzrZHzx5PGKObb+IQS2hLgWirpFlYlNydNwYc1kDOrcEi0cX4JTy+FYdUv4I174a12WeB/JzVzwUk3e76rhS1F2PwH3Unbho45t0KaNYnVDnyV/QSc3HU+rc5PATwcFKEABClCgHgREhsYwlGcgQ+hEVbDIhbiWMGDQ0AiGVXjgU1xFsQ0cmpc8+dZu7gDrlEQkC72/ZMkPkWLbAvbFNw9acGhhh9TEJORo2FfH716sB00WQQEKUIACDVtADIdho9BFeLCyJ+oIfjtoDf+R7tBq2JWum9ppuDcuXYCWxyxsmO+M0zP7w8X6JXQbvQjH7ueD97l1cxqYS+MXKBPcKh0D0pGI8O9SAa7fLj1UvhWxTGBL8JGrGPSXF7EME766i2EbziMm/g5io/dickuxMqXEtjmsHtxGXPlXRhVaixSp1Aaj1H8pSmyawc5+DP7vynVcv164xtzF3aC/wbY6NwmN/5yzhRSgAAUo0AAEJC3aoo3+DUREFvWTykXklSgYu7WF8KC26kv+QyTcK7moSu8lIMnCFlZCHhIrG1gkxuNecbQqDwlxD2Buaw1dDfuaxM1G1YWZkgIUoAAF6kBA1MwHo7pewC+fLMVhhwAEtFUxH2UdlNPQstB0b1ymrkJPbI8PfsTe83FIit6FsVn/wfvfnISM97kN7ZSyPg1UQOOfz6UDXIr6lw9sKbYVxaEUvb2KFvnTdGQaOKC1k5kQjc9H0rFfsD1Kptyt7fk23rbaiQVfHURclhAay0nC1dCrSFZkJDaHpWkKbsemqY1vqftS1PYci7GmgZj7zRHEZQqZybLw8NoxHDjHObdKzgx/ogAFKECB+hSQ5+UiJzsbuXnC9U4mRXZ2jvJn5WLYB+/4SrH5u1/w19M8pF3+Gd9t08bIsb2q93Yl+WPsW7YcYan5yH98Hiu+3wPzYb7oIESotD0DMFx/OxYvP4dUmQyp55Zj0TZd+AZ0hYGGfU1hlEh9fg5YFgUoQAEKCAIiGwwZ1QM3jv0Jl5H+aN00YlvQdG9c+nMhjTyErWdjkS48kNI2sYGtqa4wxY8EOrzP5a8PBaokoDK4pZhQvmgpCnBN6+VQMhSxVNYlaUuiW9pdp2LxGxGY3LkTevYdgA/2WaN7m8LnwDoemBu0Br3/mgFPWxOY2b+K8f+LKBg6KHkZb302GLc+d4WZmQ2G/nKvYpBL3ZeiTmfM2bkWfa/NRg8HE+EtjM7oMe5nnEupzqy8VTJjIgpQgAIUoEAVBPJw6evOMNI3wcD/Cr2n1rwJU30juM87j4KOVCYY8M/f8IXBGrzezAQOQ7bA9qtAfPOaQRXyLpVE62X4v/EUC7zsYek0FNscFmLTXE8oByrqe2PhtsVw3hsAVzMzuAbsgdOibQVlaNpXvRowNQUoQAEKUKBEQKQDY+NoLB/YHkNXXENBFwfFbhGsx+7Ck/wchP69FYpjW7Io/OzrjgHLomFiXJO5axo2vsZ741JVl6dFYMOU3nC2NIWZnScWPnkPa+Z4Q5v3uQ37BLN2DUZAtGPHDvmIESOUFUp6KsUba64g5JNOyrcUlh4dWBTEKt4mbBAJ3bViU7IxdnMkDk50h7Uhn/U2mDPLilCAAhSopUC20ONIT0+vlrnw8LoS4PmoK0nm09AF+FlvWGeI54Pno2EJNKza8PeD56NhCTS92mRmZiIxMRF379wqO4efsZ4ERroSeP94SQhcKWBEyv8rflT+X/iP8ufCfytSZEnzYaavBVNdztDR9D5KbDEFKEABClCAAhSgAAUoQAEKUIACFHi+AmUiUnpaYhz/qANyiuYDKVe30vNqld6lIxEXvDnx+baFpVOAAhSgAAUoQAEKUIACFKAABShAAQo0MYEK3a3EQgRLX7tk/qwm5sHmUoACFKAABShAAQpQgAIUoAAFKEABCrxAAmI7W5sXqLqsKgUoQAEKUIACFKAABShAAQpQgAIUoAAFSgTE2tqcBJ4fCApQgAIUoAAFKEABClCAAhSgAAUoQIEXU0Acn3D3xaw5a00BClCAAhSgAAUoQAEKUIACFKAABSjQ5AXETV6AABSgAAUoQAEKUIACFKAABShAAQpQgAIvrACDWy/sqWPFKUABClCAAhSgAAUoQAEKUIACFKAABSoEt0TLL0Oxll/Ubcci4c2KipULBShAAQpQgAIUoAAFKNC0BeRZOB4aju+jspH/PCXkmdh5+AwmXUiH7HnWg2VTgAIUoEC9CFQIbpUuVV1AS932eqkxC6EABShAAQpQgAIUoAAFGqZA/lPsO3MD2x/kQl7FGspzUrByxxE4LwyE9vztcApKwJMqHqs2mTwb5yITEJKaV1APuRS34+7h6ENpleulNm/u0CyQsxfvmhvA0tEVA/79V+XBRdkN/PBmSzha6sNodBByNOfOvRSgAAVUCmip3Fq4UT6to8rd6rarTMyNFKAABShAAQpQgAIUoAAFVArkI+xkKD6LMcFC/z7oZQRkapvAWGXaWmzMT8H3W07jco/B6GujDY47qYVlVQ7V9sC84JOY5qyxL0VBTpKXMfVAFHxW9EanP6qSOdNQgAIUqChQ4dtGEbhSFbxStx1fCs9kFCsXClCAAhSgAAVKCeQgbMVo9OvkBDMdLTT/6Chyy/hUtr8WmNIz+Lx1W8wMy6tFJoWH1mVeta8Nc6AABRqbgDwDp2Mz4NjODdPcbNDV0QZ97PRQ4SalsbWb7aEABShAgToV4HWjTjmZGQUoQAEKUKBIQAR9hx549x/r8H2AnYobtcr2U5ICFKDACyCQl46tB0/ilUVboftVENqsi8DxrHIPvmUZ2H/sDLovDYLRVzvgsvpPrLxbODxQLkOmVI7okCPQmbMFojmB6BqcJgxlkyMqLARui7dDb14gjL87CJ+j93G3aCIvWSImLwmEV8jT4rm98lNvwHvBLnwco262LzlCD+6FRFnOVvhHcDau+vmEyXBjSTfYBAQitfijkYPT01rBdeopDkOsn5PAUijQ6AUqBLfUzqelZuJ4delzY/dgzrCOsDczhomVEzwnbEZs4XVG075GL84GUoACFKBAExHQQXu/KXhvaE+0spCoaHNl+1UcUqVNOdg/dQzWxkZj1fCWcHJqjdEbHijnmJHG7ce8Ye5obmYEEzt3+C0+hSRhR17Uj+jf3APzz2UqS8iP2wBfBzd8ciwR+9TkVaWqMBEFKNC4BYR5rH4/cBJjz2fDq48X9o/titkuOsgqEzPKQ8iRUxh5QYpBA7xxanw3TNR/gGmbLuFQqcmVnD28cHnqm4iYOghbPIwgEQYO2r7kiu9G9kbIpL7Y6GWEiOBQzIis+lxeFfFF6OjdG+HKcgZiWWtV380Vj+KW2gpI0Mp/JFqfCsSBlMLoVvZZBO4RY/hb3aFb2+x5PAUoQAFBQOOcW0VvTSw/TFHd9mLR3Av41nccjvRdjzNbBqOFOAl/XUyEkWJwu6Z9PCUUoAAFKEABCtRSQBeDf9iE8cc+gPbGK1jiWXipl4Zjid94HB+wCee39oH5vb2YPmwsPnG9gC0jJ2P114fgPeErDDg1CZEfzcKt0YHY0M8Wxr1U5FXLGvJwClCgcQjIsxLw06UsePbvg1XdjQp6qDrpIPziPZwpbKIizdKwTAzw6Yf57XSVc1118snAoaVXsS3WA2+0UiQUQcfQCK/Ympa5OTG1bYZhtgUZeTTTwdWrh7E+Pg15r1hBu4aE+kbGaGdbWNca5sHDqi8gdh6BkW0XI3BfEt5+zwbZwb9hr54vtr2qU/3MeAQFKEABFQIag1vlg1pFx6vbXrRfGrYRm5J88dPCIXAyUGy1QXsvG+VuTftU1I+bKEABClCAAhSoAwHp+V+x4b4PfpzXD80Vj8mdfTDv4//APSgYmSP94DJ+JRYf8MK73vuQoTMOe7Z51/2EznXQDmZBAQo0HIG85MeIlBnAt4WhiqHXBfXMS05FhDQPsUG7oL+zpO55Qu8u/XRNby7MR0zkVcwKjkdochYytXShm5MPLUd1Qw4bjgtrokJA3AK+ozpg4dZ9SBw7ChcDD8DUbw861zRKqaIIbqIABZq2QIXgltrAlZpJ41WllyXeR3KzDnhJRR9TTfua9qlg6ylAAQpQgALPTkB2PwH3Uo7jo47BKH5OnpsOnY7peCqMEjEUbjyGvd8fM0dsR6eVk+GpfDjFhQIUoIAGgcJXDsrliqFmat4/qNylh7f9+mB289JpRDAy1hGOylJZgCwxEqMCoyDx6Iz1QyxhizSs2nEWu4tTiyARssuT5SuHXXNp6AJiOAwbhS7zt2JPlAVCDlrD/7C75mFEDb1JrB8FKNCgBCoEt+qidhLb5rB6cBtxwmuh3PTL5qhpX12UzTwoQAEKUIACFFDcZgq3e6Xu+CQ2zWBnPwbrriyDt4pRIPLHxzB35lG4v9MXNxbNxu5h6zHcpuBGtHxe9KUABSigENCyskAH7Sgcj05DbguzksB5KR4tKzO0lUQhPFkOlw6mFdOo6YiVnZiCq3JrrOzngn6K+wm5NlrplwqOiXRhZwjcSU5HNkwg/KhyKQi8KXZJYCD0EnqSJVVOQF9h4mGVR3NjXQqImvlgVNcvsfKTpbjjEIDZbTnnWV36Mi8KNHWBCt/r6iaIV7t9WzeIhLX0ou35Nt622okFXx1EnPC2FHlOEq6GXoVwTYOmfU39ZLD9FKAABSjQuATkebnIyc5Gbp5wLZRJkZ2do/y5aKlsf401xOawNE3B7di04viWtudYjDUNxNxvjiAuU6iDLAsPrx3DgXNJkMsf4eAXk7Cn41KsX7seKweG4tNPt+G+8g6wYl41rhcPpAAFGpWASN8BM7qZ4npwCN46HotDtx/ixM0kROWWfM+JDBwwTZgg/vrpMxhzIhYHYh7i2PVY/HApGWkaulzpCkGxVvJkrDlxG0fiU3H5Xipic0odIDbBEDdTPIkIx6Sz8fg9JhFHYx4r7zeUi0gH1kIP1Dsx8Tj8SBj+KDZGZzsJbl65hp+uJ+JYZAx+E57Ea6hCozpXDaIxIhsMGdUDN479CZeR/uB8/g3irLASFGg0AhWCW6VbpjagtfwyiiaVVymh44G5QWvQ+68Z8LQ1gZn9qxj/vwjlsAdo2qcyM26kAAUoQAEKvIgCebj0dWcY6Ztg4H/jcW/NmzDVN4L7vPPIUzansv21aLPkZbz12WDc+twVZmY2GPrLPch1OmPOzrXoe202ejiYCG8ydkaPcT/jXIoMD3d/jo+PeGHFigA0k1hg4JL/Ylj4dEzZnIB8VXnVomo8lAIUaEwCEnTt1xsHX7dGyuWLGPG/4xgUeB2RpjbwttYp7B2ljT6D+mDXa+ZIuHgB/uuOY+iOCGyOyxQGGqpftJq7YcNQR0giL8Jn9WF4rgnF5mwTdLRUDGVULCJ06OWFdR76CDsRisHrTsLvUKIwJ5ctOineYiUywpg+beCZHo0Z554gT+jp5T/QA+OMkrFg8wkMDYrE1vtZyl5cXOpYQAgsGhtHY/nA9hi64hpKXp4pgvXYXXiSn4PQv7cS+tIVLrIo/OzrjgHLomFirGJemzquHrOjAAUap4Box44d8hEjRhS3rvSbENOlBV/3xtri4mCWYo6tMtsLe23JA/5onEJsFQUoQIEmKpAt9DjS09Nroq1veM3m+Wh454Q1ejYC/Kw/G9ea5srzUVO5Z3Mcz8ezca1prjwfNZV7NsfxfDwb14aca2ZmJhITE3H3zq2Kc/iVniBeEdQqWmLGtS3+ucz2N0u99qQht5p1owAFKEABClCAAhSgAAXqTODC3ZQ6y+t5ZdTF3uJ5Fc1yKUABClCgDgWqPKG8s4mK2WeFijgbNqvD6jArClCAAhSgAAWqIpAfuxr+ry/CRWm51Nqd8eWR7ZjopHHmgaoUwTQUoAAFNAq8vu6Exv0vws6UuX4vQjVZRwpQgAIUqESgysGtSvLhbgpQgAIUoAAF6lFA7DQRQTcn1mOJLIoCFKBAWQEGhviJoAAFKECBhiIgtrO1aSh1YT0oQAEKUIACFKAABShAAQpQgAIUoAAFKFAtAbG2tna1DmBiClCAAhSgAAUoQAEKUIACFKAABShAAQo0FAFxfMLdhlIX1oMCFKAABShAAQpQgAIUoAAFKEABClCAAtUS4Gyz1eJiYgpQgAIUoAAFKEABClCAAhSgAAUoQIGGJMDgVkM6G6wLBShAAQpQgAIUoAAFKEABClCAAhSgQLUEGNyqFhcTU4ACFKAABShAAQpQgAJqBeRZOB4aju+jspGvNlE97JBnYufhM5h0IR2yeiiORVCAAhSgwPMVYHDr+fqzdApQgAIUoAAFKEABCjQegfyn2HfmBrY/yIW8iq2S56Rg5Y4jcF4YCO352+EUlIAnVTxWbTJ5Ns5FJiAkNa+gHnIpbsfdw9GH0irXS23e3KFZIGcv3jU3gKWjKwb8+6/Kg4uyG/jhzZZwtNSH0egg5GjOnXspQAEKqBTQUrmVGylAAQpQgAIUoAAFKEABCjxzgXyEnQzFZzEmWOjfB72MgExtExjXdbn5Kfh+y2lc7jEYfW20Iarr/JlfWQFtD8wLPolpzlXoSyF5GVMPRMFnRW90+oOQFKAABWomUOHbxuCnKxAtvwyrVVeLc1T8W7GKV4SXKcXiv1eV2xXH1MsiPYPPW7fFzLC8uimurvOrm1oxFwpQgAIUaBQCOQhbMRr9OjnBTEcLzT86itzS7coKx/8mD4HHS+bQ0zGE7SuDMH1rVPWeWNfldawu82oU54+NoAAF6kVAnoHTsRlwbOeGaW426Opogz52eqhwk1IvlWEhFKAABSjwogqUuW4oglRZeQWj4x9l5SkDV6UXuVxevE2xLzW7IMikOKZ82hcVhPWmAAUoQAEK1I2ACPoOPfDuP9bh+wC7Cjdq8uz7eGQ2FP/YEYaY+GvY9akFdo97C/+M4OwwdePPXChAgXoRyEvH1oMn8cqirdD9Kght1kXgeFa5AYmyDOw/dgbdlwbB6KsdcFn9J1beLRweKJchUypHdMgR6MzZAtGcQHQNThOGsskRFRYCt8XboTcvEMbfHYTP0fu4WzSRlywRk5cEwivkafHcXvmpN+C9YBc+jlE325ccoQf3QqIsZyv8+X1bLx8RCGfzxpJusAkIRGrxRyMHp6e1guvUU9V7qFNPNWYxFKDAiydQJrhVFNiST+tYoSWKbZq2l9+XG7sHc4Z1hL2ZMUysnOA5YTNiC68zGVfXY1IvF1gaG8PS2RsThYtghqJE6SlMdW2P8d9+AV9vT3Ro6YJOY1bjarZiZw72Tx2DtbHRWDW8JZycWmP0hgfKMfPSuP2YN8wdzc2MYGLnDr/Fp5Ck3FGz/Co0nhsoQAEKUIAC1RbQQXu/KXhvaE+0spBUOFpkPggzFn2INz1aobntS+g+bhbGtryJ85efVkirekP1r4t5UT+if3MPzD+XqcwyP24DfB3c8MmxROxTc41VXTa3UoACFBAEhHmsfj9wEmPPZ8Orjxf2j+2K2S46yCoTo89DyJFTGHlBikEDvHFqfDdM1H+AaZsu4VCpyZWcPbxweeqbiJg6CFs8jCARBg7avuSK70b2RsikvtjoZYSI4FDMiKz6XF4Vz5EIHb17I1xZzkAsa13xu7niMdxSewEJWvmPROtTgTiQUhjdyj6LwD1iDH+rO3RrXwBzoAAFKFDhQXJxAKt8sMp5XSQUa5WW3Av41nccjrT8BmfupeFxQhjWjmsPI8Xg9qwQzPefgRsDNyEqNRU3t7yB6Jn+mHs6qyDrvBs4cq0zVhwPQ/i1g3gnfi5mbU4Ugli6GPzDJox3aokPd0UjNjYKW961g0gajiV+43G83TKcT0xDYuhC2G4Zi0+2JRVMFlnd/KrUQCaiAAUoQAEK1K1AfuI5hCU4o0M7wypmXP3roqT1ZKz+2hZrJ3yFkMcxWPvRLNwavRqL+tliiKprbBVrwmQUoEDTFJBnJeCnS1nw7NsTq7o7oL+rPd577WUMVv7RX7Ao0iwNy8SAAd0xv501ujja4wsfN3TPSMC2oiffQiBLx9AIr9iaop2wuhgUPH83tW2GYa5W8LC3xrCe7phgl4dz8WmozQQl+kbGyjIUqyOjKvX2wRU7j8DItqcRuK/gHi0r+Dfs1fPFqFd16q0OLIgCFGjcAhUmlFc3vPD2+25KifL7/3xQ8PRXLBLhVVt9ZRpp2EZsSvLFTwuHwMlAscUG7b1sCvdtRVCmP9ZM7w5LRendpmNuwCq8H/gH/tlNuJCJHTFikh9aaCuSu6J/H3usDL8hXMRsodxUbpGe/xUb7vvgx3n90FxxgXL2wbyP/wP3oGBk+lpVO7/y+fPfFKAABShAgWcukBWBH99fgNjR67CxY4VLc7WK13hdHOkHl/ErsfiAF9713ocMnXHYs8277idurlaNmZgCFHhRBfKSHyNSZgDfFoYVn5gXNiovORUR0jzEBu2C/s6SluYJvbv00zW9uTAfMZFXMSs4HqHJWcjU0oVuTj60HNUNOXxRFZtIvcUt4DuqAxZu3YfEsaNwMfAATP32oLOqG7wmQsJmUoACdSug8i9oRa+t8kGson9ricu+W6Tbb1HFNSrq7SVLvI/kZh3wkoqnIbLkh0ix7QD74i8yLTi0sEPq+SRlAAtiE5ia/H97dwIXZbX/D/wzDKuxyS6gl8UNNdwQFbNETS0FREFKs25aXdMyy9Qst66lef1fl7JMzfD6u2q44JrmhhvKTdwIE0FERERRBIVkmxnm/8ywwwwOMOiMfp7Xa17i85znnPO8z7zmzPN9zjlTXoYIRsIivMXF6ocfy26lIyM7Cu93OY6KuH9xHoy75OEvuSK4Vb/8tMvL3ChAAQpQgAKPEChKxNo3gvCdzULsX/IymjfyJ7zq7heB54QbjKC3B2LGiK3ounIifJUPobhRgAIUaIBA2eeVYl1e4RG46gyUh0wxeqQ/ZjpXTSOCuYWxcFbZ7I0aZ8syExAWkQSxTzesG2Yr3CXkYtW2U9hZkU4EsZCdVFZSOltDdencqzMCBnANCkP3OZuxK8kG0fvsEbLfGypvRnWmzqwIBSigTwK1Pk/KA1Q7Az0QtCul1rVcGNNeuU/6URcYLq9ccD5vkndFWrGjM+xuX0Oa8LNQXqWDuSqP2TnAJvMGMoTxxF7Kae5SpKfdRnNHe40+3ESK7qtiIUJA7NACTi5jEP7HUvStOapVWHPrUVvN/B6VnscpQAEKUIACWhMovoL/jH0VX5XMxL7/jIVnA55g1+zH6uwXhYrL7x/GrBmH4P1GfyQumImdQesw3KH0hrNmXlq7TmZEAQo8lQKGdjbobJSEqORcFLeyrnzQXOVqDe2s0UGchLgsOTw6W9VOo2YgVmFmNi7K7bFygAcGKO4n5EZoY1YlOCYygZMwi/t6Vh4KYQl1E7pLA2+KConRTPiMfVAgUS5Az19jfPxvSVGLQIT1/BwrP1yC666hmNmBa549/lZgiRR4egWqfa5XXWcr0MOy2vpb5QvKd7QtHY6leFJSvk/xr7lRZVZGvqMx2m475s7bhzTh11LkRXdxMeYihD4NRr6hGG62FQuXxSJHJkNO7DIs2GKC4NCeKqcdVqM3aA5bq2xcS82tiG8Z+Y7FWKsIzPrqINLyhQJkBbhz6TD2xpatuVVX26nIr67kPEYBClCAAhSoj4BcWoyiwkIUS4W+UCZBYWGR8m/lJrmGDX9/BZ/nvI/NP4+Fm7xQeVxSnx9LVNGP1dkvyu9h3/QJ2NVlCdatXYeVg2Pw0UdbcEt5p1e7j63PtTItBSjw7AmIzFwxrZcVLh+PxmtRqfjt2h0cuXIXScWVT6JFzVwxRVgg/vKJkxhzJBV7U+7g8OVUfHs+C7lVHljX1DMRgmJt5FlYc+QaDt7IwYWMHKQWVTlBmJ0xzMsKD+LjMOHUDRxIycShlPvK+w3lJjKGvTAy9XrKDey/J0x/NLBANycxrvxxCSsuZ+JwQgp+EZ7E11GFmlXi/xsrIHLAsLA+SDz8OzxGhYDr+TcWlOdTgAJVBZrmoYWxD2ZFrkG/P6fB19ES1i49MM5qOP8AACAASURBVP7neGGaoFC0WV/M37IQ7rtD4WltDc/QXXBbsAVfvaTBvAhxO7z28VBc/cQT1tYOCPgpA3Ljbvhi+1r0vzQTfVwthV9mdEefcT8gNlvNY6CqV68qP74/KEABClCAAloRkOL8l91gbmaJwT8KI5bXvAorM3N4zz6jXAxZdn0bVmy9ioxDQl9pYwYzM8XLEgNWpFb8rP0jq6GqH1PbL8pwZ+cnmHTQD8uXh6KF2AaDF/2IoLip+GBjOkpU5fXICjABBSjwbAuI0XNAP+x72R7ZF85hxM9RGBJxGQlWDuhrb1w2OsoI/kP8seOl5kg/dxYh4VEI2BaPjWn5wkRD9ZuhsxfWB7SEOOEcAlfvh++aGGwstEQXW8VURsUmQucX/RDuY4bTR2IwNPwoRv6WKazJ5YiuigXtReYY498evnnJmBb7AFJhpFfIYB+MM8/C3I1HEBCZgM23CjT/vFVfVR6pKSAEFi0skrFs8PMIWH4Jlc9sRLAfuwMPSooQ82kbYSxd2SZLwg/B3hi0NBmWFirWtamZP/9PAQpQQIWAaNu2bfIRI0aoOMRdFKAABSjwLAsUCiOOTE1Nn2UCnbp2todONQcr04QCfK83IW4DsmZ7NACtCU9hezQhbgOyZns0AK0JT2F7NCGujmadn5+PzMxM3Lx+VaNlrnT0MlgtClCAAhSgAAUoQAEKUOBJCZy9mf2kitZaud1dbLSWFzOiAAUoQIEnJ1BrQfknVxWWTAEKUIACFKAABShAAQroi8DL4Uf0papq65k9a6TaYzxAAQpQgAL6I8Dglv60FWtKAQpQgAIUoAAFKEABnRFgYEhnmoIVoQAFKPDMCxg4OTo88wgEoAAFKEABClCAAhSgAAUoQAEKUIACFNBPAQMjIyP9rDlrTQEKUIACFKAABShAAQpQgAIUoAAFKPDMCxjcSL/5zCMQgAIUoAAFKEABClCAAhSgAAUoQAEKUEA/BQz0s9qsNQUoQAEKUIACFKAABShAAQpQgAIUoAAFAAa3+C6gAAUoQAEKUIACFKAABShAAQpQgAIU0FsBBrf0tulYcQpQgAIUoAAFKEABCuiYgLwAUTFxWJxUiJInWTV5PrbvP4kJZ/Mge5L1YNkUoAAFKPBYBBjceizMLIQCFKAABShAAQpQgALPgEDJX9hzMhFbbxdDruHlyouysXLbQbjPj4DRnK1wi0zHAw3PVZtMXojYhHRE50hL6yGX4FpaBg7dkWhcL7V580DdAkW78WbzZrBt6YlB//7z0cFFWSK+fbU1Wtqawfz1SBTVnTuPUoACFFAp8PiDW5JjmOzZFXPjpCorBMn/MN2rA2acVnNc9VncSwEKUIACFKAABShAAQronUAJTh+NwccpppgY4o/od19EuJ8dLLR9HSXZWLzpBOYkFTG4pW1bVfkZ+WD28Ss4MLUjxKqOV90nbofJe5NwYk4PGD0qLY9TgAIUUCNQK7jVbMUfEC27ALtVFytOUfxf8TJYHlctG5sfLyr3K87R2iZ2x/DZszDcrVbVNC9CchKftGWATHMwpqQABShAAe0LFOH08tcxoKsbrI0N4fz+IRRXLaQkHVs/eAmdWtnB3MQU1q16IGxhFDLrM49Hm/2dNvPSPiZzpAAFnlYB+UOcSH2Ilp28MMXLAT1bOsDfyZQLAz+t7c3rogAFKNBEAtUiSIogVYG09Fv1vQKpMnBVdZPL5RX7FMdyCktHVynOqZm2wfU1cITf6NHo7dCI4FaDC+eJFKAABShAAW0JiGDm2gdv/jMci0Odat+oiSzw/JhvEHH8ItIybyJuy3jIV4/Bp7tztVUB5kMBClCg6QWkedi87yg6LtgMk3mRaB8ej6iCGhMSZQ/x6+GT6L0kEubztsFj9e9YebNseqBchnyJHMnRB2H8xSaIvohAz+O5wlQ2OZJOR8Nr4VaYzo6AxTf7EHjoFm6WPwCQZWLiogj4Rf9VsbZXSU4i+s7dgUkp6p4SyBGzbzfEynI2IySeq3E1/RtEUYIMiYt6wSE0AjkVb40inJjSBp6Tj3Ea4uNpBJZCgadeoFoEqTywJZ/SpdaFK/bVtb/msYcX12HCix6wtbCArXtfvCd0dA8rci1B5sE5eMWrBZpbu6DH339CfH7ZwRrTEiVpv2J2kDecrc1h6eSNkQuP4W7Zh2Jx6i58EdQFLtYWsLRzg+87G5FaUoRfJ4/B2tRkrBreGm5ubfH6+tscflyrRbmDAhSgAAWaVsAYz4/8AG8FvIA2NiomZYis0K53b3R0c4KNtS1cPFqjRbNc3Ei7r+EizOr7O3V9pzTpOwx09sGc2NJOtyRtPYJdvfDh4UzsYd/ZtG8H5k6Bp1FAWMfqwN6jGHumEH7+fvh1bE/M9DBGQbWYkRTRB49h1FkJhgzqi2Pje+E9s9uYsuE8fquyuJK7jx8uTH4V8ZOHYJOPuTCVTQTHv3nim1H9ED2hP/7rZ4744zGYlqD5Wl61yUXo0rcf4pTlDMbStio+m2ufxD2NFhCjTcgotD0Wgb3ZZTdyhacQscsAw1/rDZNG588MKEABCqD2g+TyIFXNYJV7eAIUL422gmjMCZmGxMEbkJSTgyubXkHyjBDMOlFQero0EVt+NcPck+m4d207gq9/jtFfx1afrqFIKYnDopHjEdVpKc5k5iIzZj4cN43Fh1vuQl58Fl8Hj8PB1l/hZEYu7qefxtpxz8NcZIKh327AeLfW+MeOZKSmJmHTm05C98iNAhSgAAUooGsCEpz6vBucHW1h7TwIP0nD8MEI19qds8pqq+nv6ug7xW0nYvWXjlj7zjxE30/B2vc/w9XXV2PBAEcMY9+pUpk7KUAB9QLygnSsOF8A3/4vYFVvVwz0dMFbL7XDUPPKb96KNEtO52PQoN6Y08ke3Vu6YHqgF3o/TMeW1PIRViIYP2eOjo5W6CS8PJqVPn+3cmyBIE87+LjYI+gFb7zjJEXsjVw0ZmVeM3MLZRmKV0tGVdQ3rpaPGLiPwKgOJxCxR7iPE/IuOP4LdpsGI6yHsZZLYnYUoMCzKmBY88LVTS+89raXMmnN47/fLn36ayASoYejmTKN5PRmROaHYM3U3rBVlNBrKmaFrsLbEf/Dv3oJnZXIGgFTp6KX8km2Lz6eHojvp0Yi7sse6KHMoXSTnPk/rL8ViO9mD4CzovNxD8TsSd/DO/I4HjhHY8PdYKyYPwxuzRTpHfC8n0PlyfyLAhSgAAUooPMCRugxcz/OTRJGbMX8gv/8zxltrRo3Lb+uvjN/1Eh4jF+JhXv98GbfPXhoPA67tvTV/sLNOu/OClKAAtoQkGbdR4KsGYJbPac2KC/NykG8RIrUyB0w215ZqlQY3WWWV9cvF5YgJeEiPjt+AzFZBcg3NIFJUQkMW6qbcqiNK2IeTSZg0ArBYZ0xf/MeZI4Nw7mIvbAauQvduIJ8k5EzYwo8awK1glsKAMWorZpBrPL/GxpUHwPV65ekCrPy0V6yrDvIduwMl4oPK0O4tnJCzpm7wpMWR2G8mANcnSuj9EbOrrDPTkOWoq+qkr3sVjoysqPwfpfjqEhdnAfjLnnIvX0LWS0642984vKsvWd5vRSgAAWeKgEjC3s4KV7CiOf84x3w1uKuiP2yC1R20BpceV1951/C4/LnhBuMoLcHYsaIrei6ciJ8lQ+IuFGAAhRogEDZ93bFurzVvsRXzUp5yBSjR/pjpnPV+wgRzC2Mha/+ZTM7ahQvy0xAWEQSxD7dsG6YrXAHkYtV205hZ0U6EcRCdlJZCZcfaUDTPf5TDOAaFIbuczZjV5INovfZI2S/d4P7usdff5ZIAQroukCt787lAaqdgR4I2pVSq/4XxrRX7pN+JHzxXl654HzeJO+KtGI7B9hk3kCGMGbYSzmVXYr0tNto7mhf+gFWcgfpGcJvRnUrLV6SkY67No6wUzysrlhkEBA7tICTyxiE/7EUfWuMWJVE/wG729eQJmTjVTpgrFpdRYqMquRV7SD/QwEKUIACFNBBAblcGN1w9bqw9K7mwa2a/V1dfafikuX3D2PWjEPwfqM/EhfMxM6gdRjuUHrDWTMvHSRilShAAR0SMLSzQWejJEQl56K4lXXlw+gqdTS0s0YHcRLisuTw6GxVO42agViFmdm4KLfHygEeGKD4ri83QhuzKsExYSkSp+eA61l5KIQlhD9VbqWBN8UhMZoJD94fFEiU6xo2boysyqK48xECohaBCOv5OVZ+uATXXUMxswPXPHsEGQ9TgAL1EKj2uV51na1AD8uKBeQV+8tfHW1Lh0opnpRU3W9uVJmVkW8ohpttxcJlsciRyZATuwwLtpggOLQnlIO55PexZ+kynM4pQcn9M1i+eBeaBwWjc41Qm5HvWIy1isCsrw4iLV+IVMkKcOfSYeyNvQtD39EYbbcdc+ftQ5rwiyzyoru4GHMRQr8p9FbNYWuVjWupuYxv1ePNwKQUoAAFKKBdAbm0GEWFhSiWCv2UTILCwiLl34pNfv8k/rt2Py5cu4vc3Nu4uHMuZm98gF4vdSvtKzWpior+rq6+Uy6/h33TJ2BXlyVYt3YdVg6OwUcfbcEt5Z0e+05NyJmGAhSoFBCZuWJaLytcPh6N16JS8du1Ozhy5S6SiiufMIuauWKKsED85RMnMeZIKvam3MHhy6n49nwWcut4EG0iBMXayLOw5sg1HLyRgwsZOUgtqnKCgSWGeVnhQXwcJpy6gQMpmTiUcr/0XkBRRZEx7IWRqddTbmD/PWH6o4EFujmJceWPS1hxOROHE1Lwi/CUvI4qsKm1LSBywLCwPkg8/Ds8RoWA6/lrG5j5UeDZFmiahxZmfTF/y0K47w6Fp7U1PEN3wW3BFnz1UtncB8N2CHnlL8z1c4GtWwC2uM7Hhlm+tZ/kGHfDF9vXov+lmejjain8IqI7+oz7AbHZwrdwYx/MilyDfn9Og6+jJaxdemD8z/FQTLmAuB1e+3gorn7iCWtrBwT8lMGO69l+n/PqKUABCjwBASnOf9kN5maWGPyjMJp5zauwMjOH9+wzpYshG0iQuuNzBPdwg52dJ/w/jYb7jEiEj2+p+YgCVf2d2r5Thjs7P8Gkg35YvjwULcQ2GLzoRwTFTcUHG9NRoiqvJ6DGIilAAX0SEKPngH7Y97I9si+cw4ifozAk4jISrBzQ19647LPMCP5D/LHjpeZIP3cWIeFRCNgWj41p+cJEQ/WbobMX1ge0hDjhHAJX74fvmhhsLLREF1vFVEbFJkLnF/0Q7mOG00diMDT8KEb+limsyeWIrooF7UXmGOPfHr55yZgW+wBSYaRXyGAfjDPPwtyNRxAQmYDNtwo0/HVa9fXkERUCQmDRwiIZywY/j4Dll4TRyOWbCPZjd+CB8Ov2MZ+2EcbSlW2yJPwQ7I1BS5NhacE1Z1SIchcFKKCBgGjbtm3yESNGaJD0MSWRnMLUTu/BZMMFLPCpNWvyMVWCxVCAAhSgQKEw4sjU1JQQOiLA9tCRhmA1mlyA7/UmJ65XAWyPenE1eWK2R5MT16sAtke9uJo8MdujyYl1roD8/HxkZmbi5vWrureGX8m9RCRlO+HVFk0zqEznWoMVogAFKEABClCAAhSggB4KnL2ZrYe1rl7l7i42en8NvAAKUIACFIBuBbckv3+OrkPWw/q9nxHqzOAW36AUoAAFKEABClCAAhTQVYGXw4/oatU0rlf2rJEap2VCClCAAhTQXQGdmvdn1HMBLuYs0F0t1owCFKAABShAAQpQgAIUUAowMMQ3AgUoQAEK6IqAwXPPlS3yris1Yj0oQAEKUIACFKAABShAAQpQgAIUoAAFKKChgMHDh/kaJmUyClCAAhSgAAUoQAEKUIACFKAABShAAQrolgAXttKt9mBtKEABClCAAhSgAAUoQAEKUIACFKAABeohwOBWPbCYlAIUoAAFKEABClCAAhSgAAUoQAEKUEC3BBjc0q32YG0oQAEKUIACFKAABShAAQpQgAIUoAAF6iHA4FY9sJiUAhSgAAUoQAEKUIACFKhDQF6AqJg4LE4qREkdyZr8kDwf2/efxISzeZA1eWEsgAIUoAAFnrQAg1tPugVYPgUoQAEKUIACFKAABZ4WgZK/sOdkIrbeLoZcw2uSF2Vj5baDcJ8fAaM5W+EWmY4HGp6rNpm8ELEJ6YjOkZbWQy7BtbQMHLoj0bheavPmgboFinbjzebNYNvSE4P+/eejg4uyRHz7amu0tDWD+euRKKo7dx6lAAUooFLg8Qe3JMcw2bMr5sZJVVYIkv9hulcHzDit5rjqs3Rjrz7XXTcEWQsKUIACFKAABShAgWdKoASnj8bg4xRTTAzxR/S7LyLczw4W2jYoycbiTScwJ6mIwS1t26rKz8gHs49fwYGpHSFWdbzqPnE7TN6bhBNzesDoUWl5nAIUoIAagVrBrWYr/oBo2QXYrbpYcYri/4qXwfK4atnY/HhRuV9xjtY2sTuGz56F4W61qqZ5EZKT+KRtEwfIVJWhjbprfpVMSQEKUIACOi1QhNPLX8eArm6wNjaE8/uHUKymvrKr32OgtQFMX/0ZWZoOdVDkpaovUlPGI3drM69HFsYEFKAABcoE5A9xIvUhWnbywhQvB/Rs6QB/J1M04k6AtBSgAAUo8AwKVOs3FEGqAmnp7Ph7BVJl4KrqJpfLK/YpjuUUlo6uUpxTM22DLQ0c4Td6NHo76GGXps91b3CD8UQKUIACFFAtIIKZax+8+c9wLA51Un+jVnITG6atQmEnTxiqzoh7KUABCuiugDQPm/cdRccFm2EyLxLtw+MRVVAjSi97iF8Pn0TvJZEwn7cNHqt/x8qbZdMD5TLkS+RIjj4I4y82QfRFBHoezxWmssmRdDoaXgu3wnR2BCy+2YfAQ7dws3whL1kmJi6KgF/0XxVre5XkJKLv3B2YlKJutS85YvbthlhZzmaExHM1rsfzxpIhcVEvOIRGIKfirVGEE1PawHPyMU5DfDyNwFIo8NQLVIsglQe25FO61Lpwxb669tc89vDiOkx40QO2Fhawde+L94SO7mFFriXIPDgHr3i1QHNrF/T4+0+Izy87WGNqnyTtV8wO8oaztTksnbwxcuEx3C37UCxO3YUvgrrAxdoClnZu8H1nI1JLivDr5DFYm5qMVcNbw82tLV5ff1v98GN5Fg7MDUB3d3tYmVvCsdMwzP4to6KTrFcZNequ1kA5NfN5jP96OoL7+qJzaw90HbMaFwtrsXMHBShAAQrorYAxnh/5Ad4KeAFtbNRNypAja+fn+Dc+xj+H2kBUr2tV39+p6zulSd9hoLMP5sSWdrolaesR7OqFDw9nYk99+s561ZOJKUCBp1ZAWMfqwN6jGHumEH7+fvh1bE/M9DBGQbWYkRTRB49h1FkJhgzqi2Pje+E9s9uYsuE8fquyuJK7jx8uTH4V8ZOHYJOPuTCVTQTHv3nim1H9ED2hP/7rZ4744zGYlqD5Wl613UXo0rcf4pTlDMbStuo+m2ufyT2NERCjTcgotD0Wgb3ZZTdyhacQscsAw1/rDZPGZM1zKUABCpQJ1BoeVR6kqhmscg9PgOKl0VYQjTkh05A4eAOScnJwZdMrSJ4RglknCkpPlyZiy69mmHsyHfeubUfw9c8x+uvY2tM1JHFYNHI8ojotxZnMXGTGzIfjprH4cMtdyIvP4uvgcTjY+iuczMjF/fTTWDvueZiLTDD02w0Y79Ya/9iRjNTUJGx606mOGwY5mnUcj59iriM7NwPHplliw9vTsVOximVjytDA4OClblgedRpxl/bhjRuz8NnGTPVBOI3gmYgCFKAABfRJQP7gMOZ9eRPjFo2BS60e+VFXoqa/q6PvFLediNVfOmLtO/MQfT8Fa9//DFdfX40FAxwxrF5956PqxuMUoMCzICAvSMeK8wXw7f8CVvV2xUBPF7z1UjsMNa8M1SvSLDmdj0GDemNOJ3t0b+mC6YFe6P0wHVtSy0dYiWD8nDk6Olqhk/DyaFb6gWjl2AJBnnbwcbFH0AveeMdJitgbuWjMyrxm5hbKMhSvloyqPLa3qYH7CIzqcAIRe4T7OKHUguO/YLdpMMJ6GD+2OrAgClDg6RaoNQNC3fTCa297KSVqHv/9dunTXwORCD0czZRpJKc3IzI/BGum9oatooReUzErdBXejvgf/tVL6KxE1giYOhW9lE+yffHx9EB8PzUScV/2QA9lDqWb5Mz/Yf2tQHw3ewCcFZ2PeyBmT/oe3pHH8cA5GhvuBmPF/GFwa6ZI74Dn/RwqT9b0L5E9Xhg1vCJ1+zEfI2zxG4j+U4JhJf9tcBmPNDBoiRETRqKVctVETwz0d8HKuEShs3bkQoqath3TUYACFNBrgXz8/s1nOBO8Gv9uI0aqlq6lrr4zf9RIeIxfiYV7/fBm3z14aDwOu7b01f7CzVq6FmZDAQrotoA06z4SZM0Q3Oo5tVOvpVk5iJdIkRq5A2bbK69HKozuMsur65cLS5CScBGfHb+BmKwC5BuawKSoBIYt1U051G2rZ752Bq0QHNYZ8zfvQebYMJyL2AurkbvQjSvIP/NvDQJQQFsCtYJbiowVo7ZqBrHK/29oUH3SRK9fkirqUj7aS5Z1B9mOneFS8WFlCNdWTsg5c1cZvIGBA1ydK6P0Rs6usM9OQ5air6qSvexWOjKyo/B+l+OoSF2cB+Mueci9fQtZLTrjb4194iLPxdmfPsMXKw/g0l0JDMRS5GbKMeqhHLLchpfxaANLWFmWX6wIRsJiw8XFjRlmra23BPOhAAUoQIHHISCJX4ape1/ANye7CVMytLfuS11951/C4/LnhBuMoLcHYsaIrei6ciJ8lQ+IuFGAAhRogEDZV1nFurzVvsRXzUp5yBSjR/pjpnPV+wgRzC2Mha/+ZTM7ahQvy0xAWEQSxD7dsG6YrXAHkYtV205hZ0U6EcRCdlJZCWc+NKDpHv8pBnANCkP3OZuxK8kG0fvsEbLfm2tNPv6GYIkUeGoFagW3ygNUOwM9ELQrpdaFXxjTXrlP+lEXGC6vXHA+b5J3RVqxnQNsMm8gQxgz7KWcyi5FetptNHe0L/0AK7mD9AzhN6O6lRYvyUjHXRtH2ClGIFcsMgiIHVrAyWUMwv9Yir41RqxKov+A3e1rSBOy8SodMFatriJFRlXyqnawyn+k8UvxzrybeG//GezpZA1D6TnM6hqIu0IasaNzg8t4pIG6CnE/BShAAQo8AwJy3Dt1FOeTz+K11r8or1eWn4384k/Qqd15rL/4HQZpOFOjZn9XV9+pKEd+/zBmzTgE7zf6I3HBTOwMWofhDqU3nDXzegYagpdIAQo0QsDQzgadjZIQlZyL4lbWlQ+jq+RpaGeNDuIkxAk/BevR2ap2GjUDsQozs3FRbo+VAzwwQPFdX26ENmZVgmPCUiROzwHXs/JQCEsIf6rcSgNvikNiNBMevD8okCjX1q33THCVuXNnfQRELQIR1vNzrPxwCa67hmJmB655Vh8/pqUABeoWqPa5XnWdrUAPy4oF5BX7y18dbUuHSimelFTdb25UmZWRbyiGm23FwmWxyJHJkBO7DAu2mCA4tGfplDv5fexZugync0pQcv8Mli/eheZBwehcI9Rm5DsWY60iMOurg0jLFyJVsgLcuXQYe2PvwtB3NEbbbcfcefuQJvwii7zoLi7GXCz9CXWD5rC1ysa11NxHxrfkf+Uhv5kr2roJgS2hq7t7+CdsTSp9gm7UiDIeaVB3u/AoBShAAQo8BQJyaTGKCgtRLBX6KZkEhYVFyr8VIxwc3ozAtat/4sKFC8LrHHZM7gSzPvNw5MRXeEnDwBZU9Hd19Z1y+T3smz4Bu7oswbq167BycAw++mgLbinv9DTvO5+CpuElUIACWhAQmbliWi8rXD4ejdeiUvHbtTs4cuUukoornzCLhO/ZU4QF4i+fOIkxR1KxN+UODl9Oxbfns5Bbx4NoEyEo1kb44ac1R67h4I0cXMjIQWpRlRMMLDHMywoP4uMw4dQNHEjJxKGU+6X3AoprExnDXhiZej3lBvbfE6Y/Gligm5MYV/64hBWXM3E4IQW/CE/J66iCFoSYRTUBkQOGhfVB4uHf4TEqBFzPn+8PClBAmwJN89DCrC/mb1kI992h8LS2hmfoLrgt2IKvXiqb+2DYDiGv/IW5fi6wdQvAFtf52DDLt/aTHONu+GL7WvS/NBN9XC2FX0R0R59xPyA2W/gWbuyDWZFr0O/PafB1tIS1Sw+M/zkeiikXELfDax8PxdVPPGFt7YCAnzLUdlxGPSdj4SvxmNitK17oPwjv7rFH7/ZlUbbGlPEoA222IvOiAAUoQAEdFJDi/JfdYG5micE/CqOZ17wKKzNzeM8+o1wM2cCsORydnOCkfAmjly2MIDKxhL2Dlea/HKWqv1Pbd8pwZ+cnmHTQD8uXh6KF2AaDF/2IoLip+GBjOkpU5aWDqqwSBSigSwJi9BzQD/tetke2EKQf8XMUhkRcRoKVA/raG5eNjjKC/xB/7HipOdLPnUVIeBQCtsVjY1q+MNFQ/Wbo7IX1AS0hTjiHwNX74bsmBhsLLdHFVjGVUbGJ0PlFP4T7mOH0kRgMDT+Kkb9lCmtyOaKrYkF7kTnG+LeHb14ypsU+gFQY6RUy2AfjzLMwd+MRBEQmYPOtgopfSFdfEx6pt4AQWLSwSMaywc8jYPmlKhPvRbAfuwMPhF+3j/m0jTCWrmyTJeGHYG8MWpoMS4vGrjlT79ryBApQ4CkREG3btk0+YsQI3bkcySlM7fQeTDZcwAKfWrMmdaeerAkFKECBp1ygUBhxZGpq+pRfpf5cHttDf9qKNW2cAN/rjfPT9tlsD22LNi4/tkfj/LR9NttD26KNy4/t0Tg/fTw7Pz8fmZmZuHn9qu6t4VdyLxFJ2U54tUXTDCrTxwZjnSlAAQpQgAIUoAAFKKBrAmdvZutalepdn+4uNvU+hydQ+7a4FQAAE4xJREFUgAIUoIDuCejU0CjJ75+j65D1sH7vZ4Q6ay+4VZK6GiEvL8A5SY0GMOqGzw9uxXtu2itL95qYNaIABShAAQpQgAIUoID2BV4OP6L9TB9zjtmzRj7mElkcBShAAQo0hYBOBbeMei7AxZwFWr9OA7f3EHnlPa3nywwpQAEKUIACFKAABSjwrAowMPSstjyvmwIUoIDuCXDIku61CWtEAQpQgAIUoAAFKEABClCAAhSgAAUooKEAg1saQjEZBShAAQpQgAIUoAAFKEABClCAAhSggO4JMLile23CGlGAAhSgAAUoQAEKUIACFKAABShAAQpoKMDgloZQTEYBClCAAhSgAAUoQAEKUIACFKAABSigewIMbulem7BGFKAABShAAQpQgAIUoAAFKEABClCAAhoKMLilIRSTUYACFKAABShAAQpQgAKPEJAXIComDouTClHyiKRNeliej+37T2LC2TzImrQgZk4BClCAArogwOCWLrQC60ABClCAAhSgAAUoQIGnQaDkL+w5mYitt4sh1/B65EXZWLntINznR8Bozla4RabjgYbnqk0mL0RsQjqic6Sl9ZBLcC0tA4fuSDSul9q8eaBugaLdeLN5M9i29MSgf//56OCiLBHfvtoaLW3NYP56JIrqzp1HKUABCqgUeLzBLcn/MN2rA2aclqqsDHdSgAIUoAAFKEABClCAAs+SQAlOH43BxymmmBjij+h3X0S4nx0stE1Qko3Fm05gTlIRg1vatlWVn5EPZh+/ggNTO0Ks6njVfeJ2mLw3CSfm9IDRo9LyOAUoQAE1ArWCW81W/AHRsguwW3Wx4hTF/xUvg+Vx1bKx+fGicr/iHI02sTuGz56F4W61itXodI0TSU7ik7YMomnsxYQUoAAFKNAEAkU4vfx1DOjqBmtjQzi/fwjF1Uq5j/WBZhCJRBUvsdN7OFA9Ud310mZ/p8286q41j1KAAhSoFJA/xInUh2jZyQtTvBzQs6UD/J1M0cR3C2wBClCAAhR4ygSq9RuKIFWBtHR2/L0CqTJwVXWTy+UV+xTHcgpLR2ApzqmZVqWTgSP8Ro9Gbwc96K5kskcPoVV5kdxJAQpQgAIUUAiIYObaB2/+MxyLQ53U3KgZ45U1GSgoKFC+8q//gIHG1KMABSigRwLSPGzedxQdF2yGybxItA+PR1RBjQmJsof49fBJ9F4SCfN52+Cx+nesvFk2PVAuQ75EjuTogzD+YhNEX0Sg5/Fc4Xu4HEmno+G1cCtMZ0fA4pt9CDx0CzfLF/KSZWLiogj4Rf9VsbZXSU4i+s7dgUkp6lb7kiNm326IleVsRkg8V+N6PO80GRIX9YJDaARyKt4aRTgxpQ08Jx/jNMTH0wgshQJPvUC1KFN5YEs+pUutC1fsq2t/tWMlN7F35hB4OTaHdXNbtGjrj69/lwDVpiXKkRv7LV7r7ARrGxd0CvoS/xrXDh1nxkIZMpMcw2TP5zH+6+kI7uuLzq090HXMalwsLKuaPAsH5gagu7s9rMwt4dhpGGb/liF0bkX4dfIYrE1NxqrhreHm1havr78NedF2jLbxx4ob5Z2dBNEft0Hn2edqlDcNgb26oH33T3FUeHouSfsVs4O84WxtDksnb4xceAx3NV1AoJYid1CAAhSgwLMjYIznR36AtwJeQBsbdZMyRBAbmcLE1BSmwsvExFBNEEyVmpr+Tkiqru+SJn2Hgc4+mBObr8ywJG09gl298OHhTOxR1XeqKpb7KEABCpQLCOtYHdh7FGPPFMLP3w+/ju2JmR7GKKgWM5Ii+uAxjDorwZBBfXFsfC+8Z3YbUzacx29VFldy9/HDhcmvIn7yEGzyMRemsong+DdPfDOqH6In9Md//cwRfzwG0xI0X8urdkOJ0KVvP8QpyxmMpW3VfTbXPpN7GiMgRpuQUWh7LAJ7s8tupApPIWKXAYa/1hsmjcma51KAAhQoE6g1hKo8SFUzkOUengDFS5NNEvNvTNnpgaXxd3E/JxOJ+xchoGWNziP/OGaP/gZ/vXsQN7LScHSaDLu3p1X/VRVpIg5e6oblUacRd2kf3rgxC59tzCybJy9Hs47j8VPMdWTnZuDYNEtseHs6dj4wwdBvN2C8W2v8Y0cyUlOTsOlNJ6F71GATytt3rgOWHruAyxeWYIAoDotGjkdUp6U4k5mLzJj5cNw0Fh9uucu5+hpwMgkFKEABCjxKoBgnZ/viby5u6PjiGMzfex3CoyANNzX9nUR93yVuOxGrv3TE2nfmIfp+Cta+/xmuvr4aCwY4YlhD+04Na8tkFKDA0ycgL0jHivMF8O3/Alb1dsVATxe89VI7DDWv/OatSLPkdD4GDeqNOZ3s0b2lC6YHeqH3w3RsSS1/6CyC8XPm6OhohU7Cy6NZ6S2KlWMLBHnawcfFHkEveOMdJylib+SWPphuIKeZuYWyDMWrJaMqDVSs/2kG7iMwqsMJROwpvY8qOP4LdpsGI6wHhyvXX5NnUIACqgQMa+5UN73w2tteyqQ1j/9+u/Tpr4GwZkgPR7PSNMbGMMxLwh/xKfB9sS1s3H3hrThS5Ru7JHYbdpWE4j/vPQ8Lof+yeOFTTB70PeZUrZBBS4yYMBKtlCsLemKgvwtWxiUKHZojjET2eGHU8IrU7cd8jLDFbyD6TwmCe1TNpB5/Gzhh+KQx8FR2dCJIzvwf1t8KxHezB8BZsc89ELMnfQ/vyOPIHzUSz9UjayalAAUoQAEKVBcwQ/f3w7HZoQs8LB/i8s6v8eFrASg8FIuvfRt+x/Wovstj/Eos3OuHN/vuwUPjcdi1pa/2F25mU1OAAs+EgDTrPhJkzRDc6jm1o06lWTmIl0iRGrkDZtsrWaTC6C6zvLp+ubAEKQkX8dnxG4jJEqZtG5rApKgEhi3VTTl8Jsj19yINWiE4rDPmb96DzLFhOBexF1Yjd6EbV5DX3zZlzSmgYwK1gluK+ilGbdUMYpX/39Cg+hioXr8kVVxS+WgvQ5/PsH7ObHw5YyAWJIvQ/pV/4Osln2GAXeXVy7IykePggxYVA7rM0MLZpnrHaGAJK8vy8kQwEhbkLS4uG4osz8XZnz7DFysP4NJdCQzEUuRmyjHqYSPmDBrYwN62cjCb7FY6MrKj8H6X46h4plCcB+MuefhLKOY5jYaD6ViLszoUoAAFKKAjAibo+EoYOpbVxmPqT7h/ygPzt/+BL317QGUHrUHNH9l3CTcYQW8PxIwRW9F15UT4NtMgUyahAAUooEqg7LuwYl1exYNhlZvykClGj/THTOeqaUQwtzAWzipQeZosMwFhEUkQ+3TDumG2wqPtXKzadgo7K1IL07qF7KSyEs6oUCmoazsN4BoUhu5zNmNXkg2i99kjZL93g/s6Xbs61ocCFHjyAmqnJe4M9FBZuwtj2iv3Sz+qvi5X3iTl2KzSTWQNn3e/w+4zabibvANjC77H218drfYrUWI7RzS/k45bFXPyC3ArI7v6tMTKHGv9JY1finfm3UTQ+jNIuXEdqcm7MbG1QUXnJlL8VS3OZQxjYykkFaPHSpD3oHIByrKKVytH7NACTi5j8J8/LuPy5bJXyk3cjPw7HNX037Uqyh0UoAAFKEABTQREhjAyEkEqldbrRq1mf/eovkt+/zBmzTgE7zf6I3HBTOy8U9lZ1sxLk2ozDQUo8OwKGNrZoLPRQ0Ql59b4NdhKE0M7a3QQFyEuSw4Pe0u0r3hZwNVU/RfqwsxsXJTbY8IADwxwEaYROtuijVmV9CITOAnTKK5n5aF8SV5VLVEaeFMcEaOZMEroQYFE4/sNVflxX8MFRC0CEdbzLH76cAn2u4YitAPXPGu4Js+kAAVqClQLblVdZyvQw7JiAfnyxeQV/3a0LZ0qoXhSUnW/uVFlVpKE37D5VCryhJXhjSwd4GhlArGBYlnIys2oRzCGibZg8ZqLwigoGbKi/x++PVA6xbFmJVX9X/5XHvKbuaKtm7UQ8S/B3cM/YWtSWaTMoDlsrbJxLTW38gbByAud215B1NEM5a8gFl/bhDX7suu8gTDyHYuxVhGY9dVBpOULX/5lBbhz6TD2xnLNLVVtwn0UoAAFKFBdQC4tRlFhIYqlcshlEhQWFin/VmzyvHPYsfkELmfkCA9b0hH7n4/xz702eOVVb2g8S0NFf1dn3yW/h33TJ2BXlyVYt3YdVg6OwUcfbcEtxSwfFXmxPSlAAQrUJSAyc8W0Xla4fDwar0Wl4rdrd3Dkyl0kFVcJmgvf16cIC8RfPnESY46kYm/KHRy+nIpvz2cht9qD6OolmQhBsTbCD0itOXINB2/k4ILwWZlaVOUEYYbHMC8rPIiPw4RTN3AgJROHUu5DiKGVbiJj2AsjU6+n3MD+e8L0RwMLdHMS48ofl7DiciYOJ6Tgl7TGLE5flwyPqRQQOWBYWB8kHv4dHqNCwPX8VSpxJwUo0ECBWiO3GphPtdPkufFY/0E/uNtawdrJF/MfvIU1X/St/mW9WT98tWEazH7sDxfbVuj3LzGGBrnCSKxZBN+o52QsfCUeE7t1xQv9B+HdPfbo3b5sEoe4HV77eCiufuIJa2sHBPyUIXRo7hj/r6kwWPIiOgm/xvLyp0no1M9V7foAygsy7oYvtq9F/0sz0cfVEpZ27ugz7gfEZnOuvzbeJ8yDAhSgwNMtIMX5L7vB3MwSg3+8gYw1r8LKzBzes8+ULoYsy0LsqgkY2NEZtvZeCPx/NzHwx134xr8eKzqq6u/U9l0y3Nn5CSYd9MPy5aHCsgA2GLzoRwTFTcUHG9NRoiqvp7uBeHUUoECjBcToOaAf9r1sj+wL5zDi5ygMibiMBCsH9LU3LvuebQT/If7Y8VJzpJ87i5DwKARsi8fGtHxhoqH6zdDZC+sDWkKccA6Bq/fDd00MNhZaooutYiqjYhOh84t+CPcxw+kjMRgafhQjf8sU1uRyRFfFgvYic4zxbw/fvGRMi30AqTDSK2SwD8aZZ2HuxiMIiEzA5lsFHMWlvgkafkQILFpYJGPZ4OcRsPyScmBB6SaC/dgdeFBShJhP2whj6co2WRJ+CPbGoKXJsLRo+JqTDa8wz6QABZ4GAdG2bdvkI0aM0IFreYBfQjyx6qXzOPxhy7qDTjpQW1aBAhSgwNMuUCiMODI1NX3aL1Nvro/toTdNxYo2UoDv9UYCavl0toeWQRuZHdujkYBaPp3toWXQRmbH9mgkoB6enp+fj8zMTNy8fvVJruFXgvRTB3Dbsz+6OwK3D32NJUfbIuQrZwa29PBNxSpTgAIUoAAFKEABCjxbAmdvZuv9BXd3sdH7a+AFUIACFKAAnmRwS46Hf/6Mv4eMQUah8LO+tl0R9m04JrfXbFoiG48CFKAABShAAQpQgAIUeHICL4cfeXKFa6nk7FkjtZQTs6EABShAgScp0NBfGtdCncVo9+5mXHxXC1kxCwpQgAIUoAAFKEABClDgsQowMPRYuVkYBShAAQrUIdAkC8rXUR4PUYACFKAABShAAQpQgAIUoAAFKEABClBAawIMbmmNkhlRgAIUoAAFKEABClCAAhSgAAUoQAEKPG4BBrcetzjLowAFKKAnAoaGT3Dmup4YPc5qsj0epzbLepICfK8/Sf3aZbM9aps8yT1sjyepX7tstkdtkye5h+3xJPWffNkMbj35NmANKEABCuikAL8g6FazsD10qz1Ym6YT4Hu96WwbkjPboyFqTXcO26PpbBuSM9ujIWpNdw7bo+ls9SFnBrf0oZVYRwpQgAIUoAAFKEABClCAAhSgAAUoQAGVAgxuqWThTgpQgAIUoAAFKEABClCAAhSgAAUoQAF9EGBwSx9aiXWkAAUoQAEKUIACFKAABShAAQpQgAIUUCnA4JZKFu6kAAUoQAEKUIACFKAABShAAQpQgAIU0AcBBrf0oZVYRwpQgAIUoAAFKEABClCAAhSgAAUoQAGVAgxuqWThTgpQgAIUoAAFKEABClCAAhSgAAUoQAF9EGBwSx9aiXWkAAUoQAEKUIACFKAABShAAQpQgAIUUCnA4JZKFu6kAAUoQAEKUIACFKAABShAAQpQgAIU0AcBBrf0oZVYRwpQgAIUoAAFKEABClCAAhSgAAUoQAGVAgxuqWThTgpQgAIUoAAFKEABClCAAhSgAAUoQAF9EGBwSx9aiXWkAAUoQAEKUIACFKAABShAAQpQgAIUUCnA4JZKFu6kAAUoQAEKUIACFKAABShAAQpQgAIU0AcBBrf0oZVYRwpQgAIUoAAFKEABClCAAhSgAAUoQAGVAgxuqWThTgpQgAIUoAAFKEABClCAAhSgAAUoQAF9EGBwSx9aiXWkAAUoQAEKUIACFKAABShAAQpQgAIUUCnA4JZKFu6kAAUoQAEKUIACFKAABShAAQpQgAIU0AcBBrf0oZVYRwpQgAIUoAAFKEABClCAAhSgAAUoQAGVAgxuqWThTgpQgAIUoAAFKEABClCAAhSgAAUoQAF9EGBwSx9aiXWkAAUoQAEKUIACFKAABShAAQpQgAIUUCnA4JZKFu6kAAUoQAEKUIACFKAABShAAQpQgAIU0AcBBrf0oZVYRwpQgAIUoAAFKEABClCAAhSgAAUoQAGVAgxuqWThTgpQgAIUoAAFKEABClCAAhSgAAUoQAF9EGBwSx9aiXWkAAUoQAEKUIACFKAABShAAQpQgAIUUCnw/wGkEMdS/oT+lAAAAABJRU5ErkJggg==;" vertex="1" parent="1">
          <mxGeometry x="500" y="140" width="917" height="259.07" as="geometry" />
        </mxCell>
        <mxCell id="dvEIaOIoxglr-e-UjKsE-16" style="edgeStyle=orthogonalEdgeStyle;rounded=0;orthogonalLoop=1;jettySize=auto;html=1;" edge="1" parent="1" source="dvEIaOIoxglr-e-UjKsE-3" target="dvEIaOIoxglr-e-UjKsE-15">
          <mxGeometry relative="1" as="geometry" />
        </mxCell>
        <mxCell id="dvEIaOIoxglr-e-UjKsE-3" value="SQL DB" style="strokeWidth=2;html=1;shape=mxgraph.flowchart.database;whiteSpace=wrap;" vertex="1" parent="1">
          <mxGeometry x="350" y="230" width="130" height="140" as="geometry" />
        </mxCell>
        <mxCell id="dvEIaOIoxglr-e-UjKsE-9" style="edgeStyle=orthogonalEdgeStyle;rounded=0;orthogonalLoop=1;jettySize=auto;html=1;entryX=0;entryY=1;entryDx=0;entryDy=0;exitX=0.5;exitY=0;exitDx=0;exitDy=0;" edge="1" parent="1" source="dvEIaOIoxglr-e-UjKsE-11" target="dvEIaOIoxglr-e-UjKsE-7">
          <mxGeometry relative="1" as="geometry">
            <mxPoint x="-50" y="330" as="sourcePoint" />
          </mxGeometry>
        </mxCell>
        <mxCell id="dvEIaOIoxglr-e-UjKsE-6" value="Trigger CRUD Event" style="rhombus;whiteSpace=wrap;html=1;" vertex="1" parent="1">
          <mxGeometry x="-260" y="290" width="110" height="120" as="geometry" />
        </mxCell>
        <mxCell id="dvEIaOIoxglr-e-UjKsE-7" value="Save audit trail" style="rhombus;whiteSpace=wrap;html=1;" vertex="1" parent="1">
          <mxGeometry x="-70" y="80" width="80" height="80" as="geometry" />
        </mxCell>
        <mxCell id="dvEIaOIoxglr-e-UjKsE-8" value="Send Email" style="rhombus;whiteSpace=wrap;html=1;" vertex="1" parent="1">
          <mxGeometry x="105" y="75" width="90" height="90" as="geometry" />
        </mxCell>
        <mxCell id="dvEIaOIoxglr-e-UjKsE-13" value="" style="edgeStyle=orthogonalEdgeStyle;rounded=0;orthogonalLoop=1;jettySize=auto;html=1;exitX=1;exitY=0;exitDx=0;exitDy=0;entryX=0;entryY=1;entryDx=0;entryDy=0;" edge="1" parent="1" source="dvEIaOIoxglr-e-UjKsE-6" target="dvEIaOIoxglr-e-UjKsE-11">
          <mxGeometry relative="1" as="geometry">
            <mxPoint x="-177" y="320" as="sourcePoint" />
            <mxPoint x="-70" y="180" as="targetPoint" />
          </mxGeometry>
        </mxCell>
        <mxCell id="dvEIaOIoxglr-e-UjKsE-11" value="Updated Object / Audit trail Object" style="ellipse;shape=umlEntity;whiteSpace=wrap;html=1;" vertex="1" parent="1">
          <mxGeometry x="-90" y="340" width="80" height="80" as="geometry" />
        </mxCell>
        <mxCell id="dvEIaOIoxglr-e-UjKsE-20" style="edgeStyle=orthogonalEdgeStyle;rounded=0;orthogonalLoop=1;jettySize=auto;html=1;endArrow=none;startFill=0;" edge="1" parent="1" source="dvEIaOIoxglr-e-UjKsE-15" target="dvEIaOIoxglr-e-UjKsE-19">
          <mxGeometry relative="1" as="geometry" />
        </mxCell>
        <mxCell id="dvEIaOIoxglr-e-UjKsE-25" style="edgeStyle=orthogonalEdgeStyle;rounded=0;orthogonalLoop=1;jettySize=auto;html=1;entryX=0;entryY=0.5;entryDx=0;entryDy=0;endArrow=none;startFill=0;" edge="1" parent="1" source="dvEIaOIoxglr-e-UjKsE-15" target="dvEIaOIoxglr-e-UjKsE-24">
          <mxGeometry relative="1" as="geometry" />
        </mxCell>
        <mxCell id="dvEIaOIoxglr-e-UjKsE-15" value="Email Setting" style="ellipse;shape=umlEntity;whiteSpace=wrap;html=1;" vertex="1" parent="1">
          <mxGeometry x="350" y="460" width="80" height="80" as="geometry" />
        </mxCell>
        <mxCell id="dvEIaOIoxglr-e-UjKsE-19" value="content (hbs)" style="ellipse;whiteSpace=wrap;html=1;align=center;" vertex="1" parent="1">
          <mxGeometry x="500" y="610" width="100" height="40" as="geometry" />
        </mxCell>
        <mxCell id="dvEIaOIoxglr-e-UjKsE-24" value="email_subject (hbs)" style="ellipse;whiteSpace=wrap;html=1;align=center;" vertex="1" parent="1">
          <mxGeometry x="600" y="490" width="100" height="40" as="geometry" />
        </mxCell>
        <mxCell id="dvEIaOIoxglr-e-UjKsE-29" style="edgeStyle=orthogonalEdgeStyle;rounded=0;orthogonalLoop=1;jettySize=auto;html=1;" edge="1" parent="1" source="dvEIaOIoxglr-e-UjKsE-26" target="dvEIaOIoxglr-e-UjKsE-8">
          <mxGeometry relative="1" as="geometry" />
        </mxCell>
        <mxCell id="dvEIaOIoxglr-e-UjKsE-26" value="Combine to content" style="strokeWidth=2;html=1;shape=mxgraph.flowchart.decision;whiteSpace=wrap;" vertex="1" parent="1">
          <mxGeometry x="105" y="330" width="100" height="100" as="geometry" />
        </mxCell>
        <mxCell id="dvEIaOIoxglr-e-UjKsE-27" style="edgeStyle=orthogonalEdgeStyle;rounded=0;orthogonalLoop=1;jettySize=auto;html=1;exitX=1;exitY=0.5;exitDx=0;exitDy=0;entryX=0;entryY=0.5;entryDx=0;entryDy=0;entryPerimeter=0;" edge="1" parent="1" source="dvEIaOIoxglr-e-UjKsE-11" target="dvEIaOIoxglr-e-UjKsE-26">
          <mxGeometry relative="1" as="geometry" />
        </mxCell>
        <mxCell id="dvEIaOIoxglr-e-UjKsE-28" style="edgeStyle=orthogonalEdgeStyle;rounded=0;orthogonalLoop=1;jettySize=auto;html=1;entryX=1;entryY=0.5;entryDx=0;entryDy=0;entryPerimeter=0;" edge="1" parent="1" source="dvEIaOIoxglr-e-UjKsE-15" target="dvEIaOIoxglr-e-UjKsE-26">
          <mxGeometry relative="1" as="geometry" />
        </mxCell>
        <mxCell id="dvEIaOIoxglr-e-UjKsE-30" value="" style="endArrow=none;dashed=1;html=1;rounded=0;entryX=0;entryY=0.5;entryDx=0;entryDy=0;" edge="1" parent="1" target="dvEIaOIoxglr-e-UjKsE-6">
          <mxGeometry width="50" height="50" relative="1" as="geometry">
            <mxPoint x="-450" y="350" as="sourcePoint" />
            <mxPoint x="-120" y="220" as="targetPoint" />
          </mxGeometry>
        </mxCell>
      </root>
    </mxGraphModel>
  </diagram>
</mxfile>
